<?xml version="1.0" encoding="us-ascii" standalone="no"?><svg xmlns="http://www.w3.org/2000/svg" xmlns:xlink="http://www.w3.org/1999/xlink" contentStyleType="text/css" height="1142px" preserveAspectRatio="none" style="width:602px;height:1142px;background:#FFFFFF;" version="1.1" viewBox="0 0 602 1142" width="602px" zoomAndPan="magnify"><defs/><g><rect fill="none" height="249.4844" style="stroke:#000000;stroke-width:1.5;" width="352.5" x="92.5" y="318.6621"/><rect fill="none" height="88.9316" style="stroke:#000000;stroke-width:1.5;" width="325" x="102.5" y="472.2148"/><rect fill="none" height="450.3477" style="stroke:#000000;stroke-width:1.5;" width="427.5" x="10" y="582.1465"/><rect fill="none" height="88.9316" style="stroke:#000000;stroke-width:1.5;" width="325" x="102.5" y="936.5625"/><line style="stroke:#181818;stroke-width:0.5;stroke-dasharray:5.0,5.0;" x1="41" x2="41" y1="36.4883" y2="1106.8047"/><line style="stroke:#181818;stroke-width:0.5;stroke-dasharray:5.0,5.0;" x1="142.5" x2="142.5" y1="36.4883" y2="1106.8047"/><line style="stroke:#181818;stroke-width:0.5;stroke-dasharray:5.0,5.0;" x1="377.5" x2="377.5" y1="36.4883" y2="1106.8047"/><line style="stroke:#181818;stroke-width:0.5;stroke-dasharray:5.0,5.0;" x1="562" x2="562" y1="36.4883" y2="1106.8047"/><rect fill="#E2E2F0" height="30.4883" rx="2.5" ry="2.5" style="stroke:#181818;stroke-width:0.5;" width="42" x="20" y="5"/><text fill="#000000" font-family="sans-serif" font-size="14" lengthAdjust="spacing" textLength="28" x="27" y="25.5352">&#21830;&#25143;</text><rect fill="#E2E2F0" height="30.4883" rx="2.5" ry="2.5" style="stroke:#181818;stroke-width:0.5;" width="42" x="20" y="1105.8047"/><text fill="#000000" font-family="sans-serif" font-size="14" lengthAdjust="spacing" textLength="28" x="27" y="1126.3398">&#21830;&#25143;</text><rect fill="#E2E2F0" height="30.4883" rx="2.5" ry="2.5" style="stroke:#181818;stroke-width:0.5;" width="61" x="112.5" y="5"/><text fill="#000000" font-family="sans-serif" font-size="14" lengthAdjust="spacing" textLength="47" x="119.5" y="25.5352">Paykka</text><rect fill="#E2E2F0" height="30.4883" rx="2.5" ry="2.5" style="stroke:#181818;stroke-width:0.5;" width="61" x="112.5" y="1105.8047"/><text fill="#000000" font-family="sans-serif" font-size="14" lengthAdjust="spacing" textLength="47" x="119.5" y="1126.3398">Paykka</text><rect fill="#E2E2F0" height="30.4883" rx="2.5" ry="2.5" style="stroke:#181818;stroke-width:0.5;" width="79" x="338.5" y="5"/><text fill="#000000" font-family="sans-serif" font-size="14" lengthAdjust="spacing" textLength="65" x="345.5" y="25.5352">PingPong</text><rect fill="#E2E2F0" height="30.4883" rx="2.5" ry="2.5" style="stroke:#181818;stroke-width:0.5;" width="79" x="338.5" y="1105.8047"/><text fill="#000000" font-family="sans-serif" font-size="14" lengthAdjust="spacing" textLength="65" x="345.5" y="1126.3398">PingPong</text><rect fill="#E2E2F0" height="30.4883" rx="2.5" ry="2.5" style="stroke:#181818;stroke-width:0.5;" width="56" x="534" y="5"/><text fill="#000000" font-family="sans-serif" font-size="14" lengthAdjust="spacing" textLength="42" x="541" y="25.5352">&#20184;&#27454;&#26041;</text><rect fill="#E2E2F0" height="30.4883" rx="2.5" ry="2.5" style="stroke:#181818;stroke-width:0.5;" width="56" x="534" y="1105.8047"/><text fill="#000000" font-family="sans-serif" font-size="14" lengthAdjust="spacing" textLength="42" x="541" y="1126.3398">&#20184;&#27454;&#26041;</text><rect fill="#EEEEEE" height="3" style="stroke:#EEEEEE;stroke-width:1.0;" width="595" x="0" y="67.1436"/><line style="stroke:#000000;stroke-width:1.0;" x1="0" x2="595" y1="67.1436" y2="67.1436"/><line style="stroke:#000000;stroke-width:1.0;" x1="0" x2="595" y1="70.1436" y2="70.1436"/><rect fill="#EEEEEE" height="23.3105" style="stroke:#000000;stroke-width:2.0;" width="70" x="262.5" y="56.4883"/><text fill="#000000" font-family="sans-serif" font-size="13" font-weight="bold" lengthAdjust="spacing" textLength="52" x="268.5" y="73.0566">&#20837;&#36134;&#37096;&#20998;</text><polygon fill="#FF0000" points="389,107.1094,379,111.1094,389,115.1094,385,111.1094" style="stroke:#FF0000;stroke-width:1.0;"/><line style="stroke:#FF0000;stroke-width:1.0;" x1="383" x2="561" y1="111.1094" y2="111.1094"/><text fill="#FF0000" font-family="sans-serif" font-size="13" lengthAdjust="spacing" textLength="160" x="395" y="106.3672">&#20184;&#27454;&#26041;&#20174;&#22806;&#37096;&#21521;VA&#36134;&#25143;&#36716;&#36134;</text><polygon fill="#181818" points="154,136.4199,144,140.4199,154,144.4199,150,140.4199" style="stroke:#181818;stroke-width:1.0;"/><line style="stroke:#181818;stroke-width:1.0;" x1="148" x2="377" y1="140.4199" y2="140.4199"/><text fill="#000000" font-family="sans-serif" font-size="13" lengthAdjust="spacing" textLength="52" x="160" y="135.6777">&#26469;&#36134;&#36890;&#30693;</text><path d="M148,153.4199 L148,178.4199 L339,178.4199 L339,163.4199 L329,153.4199 L148,153.4199 " fill="#FEFFDD" style="stroke:#181818;stroke-width:0.5;"/><path d="M329,153.4199 L329,163.4199 L339,163.4199 L329,153.4199 " fill="#FEFFDD" style="stroke:#181818;stroke-width:0.5;"/><text fill="#000000" font-family="sans-serif" font-size="13" lengthAdjust="spacing" textLength="170" x="154" y="170.9883">Topic: currents.pre_receive</text><line style="stroke:#181818;stroke-width:1.0;" x1="143" x2="185" y1="205.041" y2="205.041"/><line style="stroke:#181818;stroke-width:1.0;" x1="185" x2="185" y1="205.041" y2="218.041"/><line style="stroke:#181818;stroke-width:1.0;" x1="144" x2="185" y1="218.041" y2="218.041"/><polygon fill="#181818" points="154,214.041,144,218.041,154,222.041,150,218.041" style="stroke:#181818;stroke-width:1.0;"/><text fill="#000000" font-family="sans-serif" font-size="13" lengthAdjust="spacing" textLength="65" x="150" y="200.2988">&#23457;&#26680;&#19981;&#36890;&#36807;</text><rect fill="#EEEEEE" height="3" style="stroke:#EEEEEE;stroke-width:1.0;" width="595" x="0" y="246.6963"/><line style="stroke:#000000;stroke-width:1.0;" x1="0" x2="595" y1="246.6963" y2="246.6963"/><line style="stroke:#000000;stroke-width:1.0;" x1="0" x2="595" y1="249.6963" y2="249.6963"/><rect fill="#EEEEEE" height="23.3105" style="stroke:#000000;stroke-width:2.0;" width="70" x="262.5" y="236.041"/><text fill="#000000" font-family="sans-serif" font-size="13" font-weight="bold" lengthAdjust="spacing" textLength="52" x="268.5" y="252.6094">&#36864;&#27454;&#37096;&#20998;</text><line style="stroke:#181818;stroke-width:1.0;" x1="143" x2="185" y1="290.6621" y2="290.6621"/><line style="stroke:#181818;stroke-width:1.0;" x1="185" x2="185" y1="290.6621" y2="303.6621"/><line style="stroke:#181818;stroke-width:1.0;" x1="144" x2="185" y1="303.6621" y2="303.6621"/><polygon fill="#181818" points="154,299.6621,144,303.6621,154,307.6621,150,303.6621" style="stroke:#181818;stroke-width:1.0;"/><text fill="#000000" font-family="sans-serif" font-size="13" lengthAdjust="spacing" textLength="221" x="150" y="285.9199">&#26681;&#25454;&#25910;&#27454;&#36134;&#21495;&#24320;&#25143;&#38134;&#34892;&#65292;&#21028;&#26029;&#36864;&#27454;&#26041;&#24335;</text><path d="M92.5,318.6621 L154.5,318.6621 L154.5,325.9727 L144.5,335.9727 L92.5,335.9727 L92.5,318.6621 " fill="#EEEEEE" style="stroke:#000000;stroke-width:1.5;"/><rect fill="none" height="249.4844" style="stroke:#000000;stroke-width:1.5;" width="352.5" x="92.5" y="318.6621"/><text fill="#000000" font-family="sans-serif" font-size="13" font-weight="bold" lengthAdjust="spacing" textLength="17" x="107.5" y="332.2305">alt</text><text fill="#000000" font-family="sans-serif" font-size="11" font-weight="bold" lengthAdjust="spacing" textLength="151" x="169.5" y="331.2969">[&#25903;&#25345;&#21407;&#36335;&#36864;&#22238;&#30340;&#24320;&#25143;&#38134;&#34892;&#28192;&#36947;]</text><polygon fill="#181818" points="366,353.2832,376,357.2832,366,361.2832,370,357.2832" style="stroke:#181818;stroke-width:1.0;"/><line style="stroke:#181818;stroke-width:1.0;" x1="143" x2="372" y1="357.2832" y2="357.2832"/><text fill="#000000" font-family="sans-serif" font-size="13" lengthAdjust="spacing" textLength="52" x="150" y="352.541">&#21407;&#36335;&#36864;&#22238;</text><path d="M148,370.2832 L148,395.2832 L435,395.2832 L435,380.2832 L425,370.2832 L148,370.2832 " fill="#FEFFDD" style="stroke:#181818;stroke-width:0.5;"/><path d="M425,370.2832 L425,380.2832 L435,380.2832 L425,370.2832 " fill="#FEFFDD" style="stroke:#181818;stroke-width:0.5;"/><text fill="#000000" font-family="sans-serif" font-size="13" lengthAdjust="spacing" textLength="266" x="154" y="387.8516">/v2/currentz/transaction/inbound/refund</text><polygon fill="#181818" points="154,417.9043,144,421.9043,154,425.9043,150,421.9043" style="stroke:#181818;stroke-width:1.0;"/><line style="stroke:#181818;stroke-width:1.0;" x1="148" x2="377" y1="421.9043" y2="421.9043"/><text fill="#000000" font-family="sans-serif" font-size="13" lengthAdjust="spacing" textLength="104" x="160" y="417.1621">&#21407;&#36335;&#36864;&#22238;&#29366;&#24577;&#36890;&#30693;</text><path d="M148,434.9043 L148,459.9043 L353,459.9043 L353,444.9043 L343,434.9043 L148,434.9043 " fill="#FEFFDD" style="stroke:#181818;stroke-width:0.5;"/><path d="M343,434.9043 L343,444.9043 L353,444.9043 L343,434.9043 " fill="#FEFFDD" style="stroke:#181818;stroke-width:0.5;"/><text fill="#000000" font-family="sans-serif" font-size="13" lengthAdjust="spacing" textLength="184" x="154" y="452.4727">Topic: currents.origin_refund</text><path d="M102.5,472.2148 L164.5,472.2148 L164.5,479.5254 L154.5,489.5254 L102.5,489.5254 L102.5,472.2148 " fill="#EEEEEE" style="stroke:#000000;stroke-width:1.5;"/><rect fill="none" height="88.9316" style="stroke:#000000;stroke-width:1.5;" width="325" x="102.5" y="472.2148"/><text fill="#000000" font-family="sans-serif" font-size="13" font-weight="bold" lengthAdjust="spacing" textLength="17" x="117.5" y="485.7832">alt</text><text fill="#000000" font-family="sans-serif" font-size="11" font-weight="bold" lengthAdjust="spacing" textLength="85" x="179.5" y="484.8496">[&#25903;&#20184;&#32467;&#26524;&#20026;&#22833;&#36133;]</text><polygon fill="#181818" points="366,506.8359,376,510.8359,366,514.8359,370,510.8359" style="stroke:#181818;stroke-width:1.0;"/><line style="stroke:#181818;stroke-width:1.0;" x1="143" x2="372" y1="510.8359" y2="510.8359"/><text fill="#000000" font-family="sans-serif" font-size="13" lengthAdjust="spacing" textLength="157" x="150" y="506.0938">&#20154;&#24037;&#22788;&#29702;&#65292;&#32852;&#31995;PP&#25163;&#24037;&#36864;&#27454;</text><line style="stroke:#181818;stroke-width:1.0;" x1="143" x2="185" y1="540.1465" y2="540.1465"/><line style="stroke:#181818;stroke-width:1.0;" x1="185" x2="185" y1="540.1465" y2="553.1465"/><line style="stroke:#181818;stroke-width:1.0;" x1="144" x2="185" y1="553.1465" y2="553.1465"/><polygon fill="#181818" points="154,549.1465,144,553.1465,154,557.1465,150,553.1465" style="stroke:#181818;stroke-width:1.0;"/><text fill="#000000" font-family="sans-serif" font-size="13" lengthAdjust="spacing" textLength="164" x="150" y="535.4043">&#25163;&#21160;&#23558;&#35746;&#21333;&#29366;&#24577;&#25913;&#20026;[&#24050;&#36864;&#27454;]</text><path d="M10,582.1465 L72,582.1465 L72,589.457 L62,599.457 L10,599.457 L10,582.1465 " fill="#EEEEEE" style="stroke:#000000;stroke-width:1.5;"/><rect fill="none" height="450.3477" style="stroke:#000000;stroke-width:1.5;" width="427.5" x="10" y="582.1465"/><text fill="#000000" font-family="sans-serif" font-size="13" font-weight="bold" lengthAdjust="spacing" textLength="17" x="25" y="595.7148">alt</text><text fill="#000000" font-family="sans-serif" font-size="11" font-weight="bold" lengthAdjust="spacing" textLength="173" x="87" y="594.7813">[&#36890;&#36807;&#39044;&#23384;&#36134;&#25143;&#36864;&#27454;&#30340;&#24320;&#25143;&#38134;&#34892;&#28192;&#36947;]</text><polygon fill="#181818" points="131,616.7676,141,620.7676,131,624.7676,135,620.7676" style="stroke:#181818;stroke-width:1.0;"/><line style="stroke:#181818;stroke-width:1.0;" x1="41" x2="137" y1="620.7676" y2="620.7676"/><text fill="#000000" font-family="sans-serif" font-size="13" lengthAdjust="spacing" textLength="78" x="48" y="616.0254">&#34917;&#20805;&#36864;&#27454;&#20449;&#24687;</text><line style="stroke:#181818;stroke-width:1.0;" x1="143" x2="185" y1="650.0781" y2="650.0781"/><line style="stroke:#181818;stroke-width:1.0;" x1="185" x2="185" y1="650.0781" y2="663.0781"/><line style="stroke:#181818;stroke-width:1.0;" x1="144" x2="185" y1="663.0781" y2="663.0781"/><polygon fill="#181818" points="154,659.0781,144,663.0781,154,667.0781,150,663.0781" style="stroke:#181818;stroke-width:1.0;"/><text fill="#000000" font-family="sans-serif" font-size="13" lengthAdjust="spacing" textLength="91" x="150" y="645.3359">&#29983;&#25104;&#25910;&#27454;&#20154;&#20449;&#24687;</text><polygon fill="#181818" points="366,688.3887,376,692.3887,366,696.3887,370,692.3887" style="stroke:#181818;stroke-width:1.0;"/><line style="stroke:#181818;stroke-width:1.0;" x1="143" x2="372" y1="692.3887" y2="692.3887"/><text fill="#000000" font-family="sans-serif" font-size="13" lengthAdjust="spacing" textLength="65" x="150" y="687.6465">&#21019;&#24314;&#25910;&#27454;&#20154;</text><path d="M148,705.3887 L148,730.3887 L357,730.3887 L357,715.3887 L347,705.3887 L148,705.3887 " fill="#FEFFDD" style="stroke:#181818;stroke-width:0.5;"/><path d="M347,705.3887 L347,715.3887 L357,715.3887 L347,705.3887 " fill="#FEFFDD" style="stroke:#181818;stroke-width:0.5;"/><text fill="#000000" font-family="sans-serif" font-size="13" lengthAdjust="spacing" textLength="188" x="154" y="722.957">/v2/currentz/recipient/create</text><polygon fill="#181818" points="154,753.0098,144,757.0098,154,761.0098,150,757.0098" style="stroke:#181818;stroke-width:1.0;"/><line style="stroke:#181818;stroke-width:1.0;" x1="148" x2="377" y1="757.0098" y2="757.0098"/><text fill="#000000" font-family="sans-serif" font-size="13" lengthAdjust="spacing" textLength="117" x="160" y="752.2676">&#25910;&#27454;&#20154;&#23457;&#26680;&#32467;&#26524;&#36890;&#30693;</text><path d="M148,770.0098 L148,795.0098 L323,795.0098 L323,780.0098 L313,770.0098 L148,770.0098 " fill="#FEFFDD" style="stroke:#181818;stroke-width:0.5;"/><path d="M313,770.0098 L313,780.0098 L323,780.0098 L313,770.0098 " fill="#FEFFDD" style="stroke:#181818;stroke-width:0.5;"/><text fill="#000000" font-family="sans-serif" font-size="13" lengthAdjust="spacing" textLength="154" x="154" y="787.5781">Topic: currents.recipient</text><polygon fill="#181818" points="366,817.6309,376,821.6309,366,825.6309,370,821.6309" style="stroke:#181818;stroke-width:1.0;"/><line style="stroke:#181818;stroke-width:1.0;" x1="143" x2="372" y1="821.6309" y2="821.6309"/><text fill="#000000" font-family="sans-serif" font-size="13" lengthAdjust="spacing" textLength="78" x="150" y="816.8887">&#39044;&#23384;&#36134;&#25143;&#36864;&#27454;</text><path d="M148,834.6309 L148,859.6309 L345,859.6309 L345,844.6309 L335,834.6309 L148,834.6309 " fill="#FEFFDD" style="stroke:#181818;stroke-width:0.5;"/><path d="M335,834.6309 L335,844.6309 L345,844.6309 L335,834.6309 " fill="#FEFFDD" style="stroke:#181818;stroke-width:0.5;"/><text fill="#000000" font-family="sans-serif" font-size="13" lengthAdjust="spacing" textLength="176" x="154" y="852.1992">/v2/currentz/payout/create</text><polygon fill="#181818" points="154,882.252,144,886.252,154,890.252,150,886.252" style="stroke:#181818;stroke-width:1.0;"/><line style="stroke:#181818;stroke-width:1.0;" x1="148" x2="377" y1="886.252" y2="886.252"/><text fill="#000000" font-family="sans-serif" font-size="13" lengthAdjust="spacing" textLength="78" x="160" y="881.5098">&#25903;&#20184;&#32467;&#26524;&#36890;&#30693;</text><path d="M148,899.252 L148,924.252 L346,924.252 L346,909.252 L336,899.252 L148,899.252 " fill="#FEFFDD" style="stroke:#181818;stroke-width:0.5;"/><path d="M336,899.252 L336,909.252 L346,909.252 L336,899.252 " fill="#FEFFDD" style="stroke:#181818;stroke-width:0.5;"/><text fill="#000000" font-family="sans-serif" font-size="13" lengthAdjust="spacing" textLength="177" x="154" y="916.8203">Topic: currents.payout.bank</text><path d="M102.5,936.5625 L164.5,936.5625 L164.5,943.873 L154.5,953.873 L102.5,953.873 L102.5,936.5625 " fill="#EEEEEE" style="stroke:#000000;stroke-width:1.5;"/><rect fill="none" height="88.9316" style="stroke:#000000;stroke-width:1.5;" width="325" x="102.5" y="936.5625"/><text fill="#000000" font-family="sans-serif" font-size="13" font-weight="bold" lengthAdjust="spacing" textLength="17" x="117.5" y="950.1309">alt</text><text fill="#000000" font-family="sans-serif" font-size="11" font-weight="bold" lengthAdjust="spacing" textLength="85" x="179.5" y="949.1973">[&#25903;&#20184;&#32467;&#26524;&#20026;&#22833;&#36133;]</text><polygon fill="#181818" points="366,971.1836,376,975.1836,366,979.1836,370,975.1836" style="stroke:#181818;stroke-width:1.0;"/><line style="stroke:#181818;stroke-width:1.0;" x1="143" x2="372" y1="975.1836" y2="975.1836"/><text fill="#000000" font-family="sans-serif" font-size="13" lengthAdjust="spacing" textLength="157" x="150" y="970.4414">&#20154;&#24037;&#22788;&#29702;&#65292;&#32852;&#31995;PP&#25163;&#24037;&#36864;&#27454;</text><line style="stroke:#181818;stroke-width:1.0;" x1="143" x2="185" y1="1004.4941" y2="1004.4941"/><line style="stroke:#181818;stroke-width:1.0;" x1="185" x2="185" y1="1004.4941" y2="1017.4941"/><line style="stroke:#181818;stroke-width:1.0;" x1="144" x2="185" y1="1017.4941" y2="1017.4941"/><polygon fill="#181818" points="154,1013.4941,144,1017.4941,154,1021.4941,150,1017.4941" style="stroke:#181818;stroke-width:1.0;"/><text fill="#000000" font-family="sans-serif" font-size="13" lengthAdjust="spacing" textLength="164" x="150" y="999.752">&#25163;&#21160;&#23558;&#35746;&#21333;&#29366;&#24577;&#25913;&#20026;[&#24050;&#36864;&#27454;]</text><polygon fill="#FF0000" points="550,1056.8047,560,1060.8047,550,1064.8047,554,1060.8047" style="stroke:#FF0000;stroke-width:1.0;"/><line style="stroke:#FF0000;stroke-width:1.0;" x1="378" x2="556" y1="1060.8047" y2="1060.8047"/><text fill="#FF0000" font-family="sans-serif" font-size="13" lengthAdjust="spacing" textLength="104" x="385" y="1056.0625">&#36164;&#37329;&#36864;&#22238;&#33267;&#20184;&#27454;&#26041;</text><rect fill="#EEEEEE" height="3" style="stroke:#EEEEEE;stroke-width:1.0;" width="595" x="0" y="1081.8047"/><line style="stroke:#000000;stroke-width:1.0;" x1="0" x2="595" y1="1081.8047" y2="1081.8047"/><line style="stroke:#000000;stroke-width:1.0;" x1="0" x2="595" y1="1084.8047" y2="1084.8047"/><!--SRC=[rLJDJjj04BxlKwpKGqyGgKVK8FKDSgXwGGWvpW9MODVQs4ZqbAX9I2c_8Y04BH2KL1o0j8Ncl-Lbl1ldr5Ves9kOE054Z_N5gvsPxvlvPdPCZLk6RfWQjR3Opyj27Mifl4oulWXNo1monxJLP5Bpp6OoR33eGepH1TzaXanE-r1U_fO7JT-chHAEK3IAHQxYtdxjVRWGXJoEHX5wYJNROjHUZdiUlYEUc7d1IM9s6Z2dyEjv1d0wMs8y2hVJ0R3JtXBb0mzgP_VT6q254jnVbt0071DFG7Xo2iilFc7wg7jQGOWoYs1kB2nQcCrxrRnbfg5FOTtcd50hDMboCiU9JemLWWXDO2y0u983E75TacSDfx49YExTcbzJBvs6Z8PgkdUNPqsvUIsBDN20DCHsNNJIa6Tlh-QMDlvqDaIXB0-k50BK93hROKbmoc8cGjgIXMMnAZSoOklKhLSXG1oVT8-omt2oSTRBx24CNpy3a6_O7_csCGsyoyZAgqXVXFSHYsiqfUcMmMZ4e75cqqI4atdu-RxtklXKWTIXrDPhCfqPoFuexQZy31mCElSeMLy7c85kUq-UV7OQBL7-xjvMV6kuSgVL4lMAA6UxEtbGsiqKkpVjM4n-_0JNIl7HAAzZO5w_4D_oxlMvsDnNTSXY4vXcHFs7YfiTfERDYEgEceVUULPS7QfPLAuFzyYF7xor0RLRgeXSJeKvToMPgI8KJgvRF9M57JLEKDu3Jbx72yUYtGgSVEip6m-JRvW672Cw9ng8_bIx0mRr9bH3-Xr_cdEqwm7j2Dz8OUFYFdUWOQqm-vb5tG_NFq-lefcCQpJvtynkQDbmahANYLgVmGxsLlBu6dP_Pdjhk-gnksitmLRsDYBimBy0]--></g></svg>