<?xml version="1.0" encoding="us-ascii" standalone="no"?><svg xmlns="http://www.w3.org/2000/svg" xmlns:xlink="http://www.w3.org/1999/xlink" contentStyleType="text/css" height="970px" preserveAspectRatio="none" style="width:492px;height:970px;background:#FFFFFF;" version="1.1" viewBox="0 0 492 970" width="492px" zoomAndPan="magnify"><defs/><g><!--cluster ?????--><g id="cluster_&#26448;&#26009;&#23457;&#26680;&#20013;"><path d="M151.5,386.5 L453.5,386.5 A12.5,12.5 0 0 1 466,399 L466,407.9883 L139,407.9883 L139,399 A12.5,12.5 0 0 1 151.5,386.5 " fill="#F1F1F1" style="stroke:#F1F1F1;stroke-width:1.0;"/><rect fill="none" height="383.27" rx="12.5" ry="12.5" style="stroke:#181818;stroke-width:0.5;" width="327" x="139" y="386.5"/><line style="stroke:#181818;stroke-width:0.5;" x1="139" x2="466" y1="407.9883" y2="407.9883"/><text fill="#000000" font-family="sans-serif" font-size="14" lengthAdjust="spacing" textLength="70" x="267.5" y="404.0352">&#26448;&#26009;&#23457;&#26680;&#20013;</text></g><g id="&#26448;&#26009;&#23457;&#26680;&#20013;.&#24453;&#21021;&#23457;"><rect fill="#F1F1F1" height="64.7539" rx="12.5" ry="12.5" style="stroke:#181818;stroke-width:0.5;" width="107" x="286.5" y="421.5"/><line style="stroke:#181818;stroke-width:0.5;" x1="286.5" x2="393.5" y1="447.9883" y2="447.9883"/><text fill="#000000" font-family="sans-serif" font-size="14" lengthAdjust="spacing" textLength="42" x="319" y="440.0352">&#24453;&#21021;&#23457;</text><text fill="#000000" font-family="sans-serif" font-size="12" lengthAdjust="spacing" textLength="87" x="291.5" y="464.5898">MPS &#26448;&#26009;&#23457;&#26680;&#20013;</text><text fill="#000000" font-family="sans-serif" font-size="12" lengthAdjust="spacing" textLength="62" x="291.5" y="478.7227">OPS &#24453;&#21021;&#23457;</text></g><g id="&#26448;&#26009;&#23457;&#26680;&#20013;.&#24453;&#22797;&#23457;"><rect fill="#F1F1F1" height="64.7539" rx="12.5" ry="12.5" style="stroke:#181818;stroke-width:0.5;" width="107" x="286.5" y="563.26"/><line style="stroke:#181818;stroke-width:0.5;" x1="286.5" x2="393.5" y1="589.7483" y2="589.7483"/><text fill="#000000" font-family="sans-serif" font-size="14" lengthAdjust="spacing" textLength="42" x="319" y="581.7952">&#24453;&#22797;&#23457;</text><text fill="#000000" font-family="sans-serif" font-size="12" lengthAdjust="spacing" textLength="87" x="291.5" y="606.3498">MPS &#26448;&#26009;&#23457;&#26680;&#20013;</text><text fill="#000000" font-family="sans-serif" font-size="12" lengthAdjust="spacing" textLength="62" x="291.5" y="620.4827">OPS &#24453;&#22797;&#23457;</text></g><g id="&#26448;&#26009;&#23457;&#26680;&#20013;.&#24453;&#26426;&#26500;&#30003;&#25253;&#23457;&#26680;"><rect fill="#F1F1F1" height="64.7539" rx="12.5" ry="12.5" style="stroke:#181818;stroke-width:0.5;" width="130" x="155" y="689.01"/><line style="stroke:#181818;stroke-width:0.5;" x1="155" x2="285" y1="715.4983" y2="715.4983"/><text fill="#000000" font-family="sans-serif" font-size="14" lengthAdjust="spacing" textLength="98" x="171" y="707.5452">&#24453;&#26426;&#26500;&#30003;&#25253;&#23457;&#26680;</text><text fill="#000000" font-family="sans-serif" font-size="12" lengthAdjust="spacing" textLength="87" x="160" y="732.0998">MPS &#26448;&#26009;&#23457;&#26680;&#20013;</text><text fill="#000000" font-family="sans-serif" font-size="12" lengthAdjust="spacing" textLength="110" x="160" y="746.2327">OPS &#24453;&#26426;&#26500;&#30003;&#25253;&#23457;&#26680;</text></g><g id="&#26448;&#26009;&#23457;&#26680;&#20013;.&#24453;&#26426;&#26500;&#20837;&#36134;&#23457;&#26680;"><rect fill="#F1F1F1" height="64.7539" rx="12.5" ry="12.5" style="stroke:#181818;stroke-width:0.5;" width="130" x="320" y="689.01"/><line style="stroke:#181818;stroke-width:0.5;" x1="320" x2="450" y1="715.4983" y2="715.4983"/><text fill="#000000" font-family="sans-serif" font-size="14" lengthAdjust="spacing" textLength="98" x="336" y="707.5452">&#24453;&#26426;&#26500;&#20837;&#36134;&#23457;&#26680;</text><text fill="#000000" font-family="sans-serif" font-size="12" lengthAdjust="spacing" textLength="87" x="325" y="732.0998">MPS &#26448;&#26009;&#23457;&#26680;&#20013;</text><text fill="#000000" font-family="sans-serif" font-size="12" lengthAdjust="spacing" textLength="110" x="325" y="746.2327">OPS &#24453;&#26426;&#26500;&#20837;&#36134;&#23457;&#26680;</text></g><ellipse cx="151" cy="16" fill="#222222" rx="10" ry="10" style="stroke:#222222;stroke-width:1.0;"/><g id="&#21021;&#22987;"><rect fill="#F1F1F1" height="64.7539" rx="12.5" ry="12.5" style="stroke:#181818;stroke-width:0.5;" width="83" x="109.5" y="87"/><line style="stroke:#181818;stroke-width:0.5;" x1="109.5" x2="192.5" y1="113.4883" y2="113.4883"/><text fill="#000000" font-family="sans-serif" font-size="14" lengthAdjust="spacing" textLength="28" x="137" y="105.5352">&#21021;&#22987;</text><text fill="#000000" font-family="sans-serif" font-size="12" lengthAdjust="spacing" textLength="63" x="114.5" y="130.0898">MPS &#19981;&#26174;&#31034;</text><text fill="#000000" font-family="sans-serif" font-size="12" lengthAdjust="spacing" textLength="50" x="114.5" y="144.2227">OPS &#21021;&#22987;</text></g><g id="&#24050;&#20837;&#36134;&#33258;&#21160;"><rect fill="#F1F1F1" height="64.7539" rx="12.5" ry="12.5" style="stroke:#181818;stroke-width:0.5;" width="106" x="7" y="258.75"/><line style="stroke:#181818;stroke-width:0.5;" x1="7" x2="113" y1="285.2383" y2="285.2383"/><text fill="#000000" font-family="sans-serif" font-size="14" lengthAdjust="spacing" textLength="70" x="25" y="277.2852">&#24050;&#20837;&#36134;&#33258;&#21160;</text><text fill="#000000" font-family="sans-serif" font-size="12" lengthAdjust="spacing" textLength="63" x="12" y="301.8398">MPS &#24050;&#20837;&#36134;</text><text fill="#000000" font-family="sans-serif" font-size="12" lengthAdjust="spacing" textLength="86" x="12" y="315.9727">OPS &#24050;&#20837;&#36134;&#33258;&#21160;</text></g><g id="&#24453;&#20851;&#32852;&#35746;&#21333;"><rect fill="#F1F1F1" height="64.7539" rx="12.5" ry="12.5" style="stroke:#181818;stroke-width:0.5;" width="107" x="286.5" y="87"/><line style="stroke:#181818;stroke-width:0.5;" x1="286.5" x2="393.5" y1="113.4883" y2="113.4883"/><text fill="#000000" font-family="sans-serif" font-size="14" lengthAdjust="spacing" textLength="70" x="305" y="105.5352">&#24453;&#20851;&#32852;&#35746;&#21333;</text><text fill="#000000" font-family="sans-serif" font-size="12" lengthAdjust="spacing" textLength="87" x="291.5" y="130.0898">MPS &#24453;&#20851;&#32852;&#35746;&#21333;</text><text fill="#000000" font-family="sans-serif" font-size="12" lengthAdjust="spacing" textLength="86" x="291.5" y="144.2227">OPS &#24453;&#20851;&#32852;&#35746;&#21333;</text></g><g id="&#20851;&#32852;&#35746;&#21333;&#24453;&#31579;&#26597;"><rect fill="#F1F1F1" height="64.7539" rx="12.5" ry="12.5" style="stroke:#181818;stroke-width:0.5;" width="130" x="275" y="258.75"/><line style="stroke:#181818;stroke-width:0.5;" x1="275" x2="405" y1="285.2383" y2="285.2383"/><text fill="#000000" font-family="sans-serif" font-size="14" lengthAdjust="spacing" textLength="98" x="291" y="277.2852">&#20851;&#32852;&#35746;&#21333;&#24453;&#31579;&#26597;</text><text fill="#000000" font-family="sans-serif" font-size="12" lengthAdjust="spacing" textLength="87" x="280" y="301.8398">MPS &#26448;&#26009;&#23457;&#26680;&#20013;</text><text fill="#000000" font-family="sans-serif" font-size="12" lengthAdjust="spacing" textLength="110" x="280" y="315.9727">OPS &#20851;&#32852;&#35746;&#21333;&#24453;&#31579;&#26597;</text></g><g id="&#24050;&#20837;&#36134;"><rect fill="#F1F1F1" height="64.7539" rx="12.5" ry="12.5" style="stroke:#181818;stroke-width:0.5;" width="83" x="343.5" y="816.77"/><line style="stroke:#181818;stroke-width:0.5;" x1="343.5" x2="426.5" y1="843.2583" y2="843.2583"/><text fill="#000000" font-family="sans-serif" font-size="14" lengthAdjust="spacing" textLength="42" x="364" y="835.3052">&#24050;&#20837;&#36134;</text><text fill="#000000" font-family="sans-serif" font-size="12" lengthAdjust="spacing" textLength="63" x="348.5" y="859.8598">MPS &#24050;&#20837;&#36134;</text><text fill="#000000" font-family="sans-serif" font-size="12" lengthAdjust="spacing" textLength="62" x="348.5" y="873.9927">OPS &#24050;&#20837;&#36134;</text></g><ellipse cx="94" cy="953.52" fill="none" rx="11" ry="11" style="stroke:#222222;stroke-width:1.0;"/><ellipse cx="94" cy="953.52" fill="#222222" rx="6" ry="6" style="stroke:#222222;stroke-width:1.0;"/><!--link *start* to ??--><g id="link_*start*_&#21021;&#22987;"><path d="M151,26.35 C151,39.98 151,59.94 151,80.82 " fill="none" id="*start*-to-&#21021;&#22987;" style="stroke:#181818;stroke-width:1.0;"/><polygon fill="#181818" points="151,86.82,155,77.82,151,81.82,147,77.82,151,86.82" style="stroke:#181818;stroke-width:1.0;"/></g><!--link ?? to ?????--><g id="link_&#21021;&#22987;_&#24050;&#20837;&#36134;&#33258;&#21160;"><path d="M109.35,148.28 C98.23,157.66 87.29,169.03 80,181.75 C66.59,205.16 62.2812,229.6734 60.7612,252.3534 " fill="none" id="&#21021;&#22987;-to-&#24050;&#20837;&#36134;&#33258;&#21160;" style="stroke:#FF0000;stroke-width:1.0;"/><polygon fill="#FF0000" points="60.36,258.34,64.9529,249.6276,60.6943,253.3512,56.9708,249.0927,60.36,258.34" style="stroke:#FF0000;stroke-width:1.0;"/><text fill="#FF0000" font-family="sans-serif" font-size="13" lengthAdjust="spacing" textLength="47" x="101" y="195.3184">PASSED</text><text fill="#000000" font-family="sans-serif" font-size="13" lengthAdjust="spacing" textLength="87" x="81" y="210.6289">B2B&#30333;&#21517;&#21333;&#29992;&#25143;</text><text fill="#000000" font-family="sans-serif" font-size="13" lengthAdjust="spacing" textLength="52" x="98.5" y="225.9395">&#33258;&#21160;&#20837;&#36134;</text></g><!--link ?? to ?????--><g id="link_&#21021;&#22987;_&#24453;&#20851;&#32852;&#35746;&#21333;"><path d="M192.95,119.37 C220.46,119.37 250.69,119.37 280.3,119.37 " fill="none" id="&#21021;&#22987;-to-&#24453;&#20851;&#32852;&#35746;&#21333;" style="stroke:#FF0000;stroke-width:1.0;"/><polygon fill="#FF0000" points="286.3,119.37,277.3,115.37,281.3,119.37,277.3,123.37,286.3,119.37" style="stroke:#FF0000;stroke-width:1.0;"/><text fill="#FF0000" font-family="sans-serif" font-size="13" lengthAdjust="spacing" textLength="57" x="211" y="112.9384">PENDING</text></g><!--link ?? to ???????--><g id="link_&#21021;&#22987;_&#20851;&#32852;&#35746;&#21333;&#24453;&#31579;&#26597;"><path d="M177.25,151.94 C196.75,174.52 224.61,204.98 252,228.75 C263.96,239.13 272.7605,245.9451 285.7505,255.0151 " fill="none" id="&#21021;&#22987;-to-&#20851;&#32852;&#35746;&#21333;&#24453;&#31579;&#26597;" style="stroke:#FF0000;stroke-width:1.0;"/><polygon fill="#FF0000" points="290.67,258.45,285.5807,250.018,286.5704,255.5876,281.0008,256.5773,290.67,258.45" style="stroke:#FF0000;stroke-width:1.0;"/><text fill="#FF0000" font-family="sans-serif" font-size="13" lengthAdjust="spacing" textLength="57" x="263.5" y="202.8184">PENDING</text><text fill="#000000" font-family="sans-serif" font-size="13" lengthAdjust="spacing" textLength="78" x="253" y="218.1289">&#33258;&#21160;&#20851;&#32852;&#35746;&#21333;</text></g><!--link ????? to ???????--><g id="link_&#24453;&#20851;&#32852;&#35746;&#21333;_&#20851;&#32852;&#35746;&#21333;&#24453;&#31579;&#26597;"><path d="M340,151.9 C340,182.3 340,222.04 340,252.48 " fill="none" id="&#24453;&#20851;&#32852;&#35746;&#21333;-to-&#20851;&#32852;&#35746;&#21333;&#24453;&#31579;&#26597;" style="stroke:#181818;stroke-width:1.0;"/><polygon fill="#181818" points="340,258.48,344,249.48,340,253.48,336,249.48,340,258.48" style="stroke:#181818;stroke-width:1.0;"/><text fill="#000000" font-family="sans-serif" font-size="13" lengthAdjust="spacing" textLength="78" x="341" y="210.3184">&#25163;&#21160;&#20851;&#32852;&#35746;&#21333;</text></g><!--link ??????? to ???--><g id="link_&#20851;&#32852;&#35746;&#21333;&#24453;&#31579;&#26597;_&#24453;&#21021;&#23457;"><path d="M340,323.89 C340,352.07 340,387.03 340,415.19 " fill="none" id="&#20851;&#32852;&#35746;&#21333;&#24453;&#31579;&#26597;-to-&#24453;&#21021;&#23457;" style="stroke:#0000FF;stroke-width:1.0;"/><polygon fill="#0000FF" points="340,421.19,344,412.19,340,416.19,336,412.19,340,421.19" style="stroke:#0000FF;stroke-width:1.0;"/><text fill="#0000FF" font-family="sans-serif" font-size="13" lengthAdjust="spacing" textLength="57" x="341" y="367.0684">PENDING</text></g><!--link ??? to ???--><g id="link_&#24453;&#21021;&#23457;_&#24453;&#22797;&#23457;"><path d="M328.8,486.59 C326.23,509.47 325.5565,534.2479 328.1365,557.0879 " fill="none" id="&#24453;&#21021;&#23457;-to-&#24453;&#22797;&#23457;" style="stroke:#181818;stroke-width:1.0;"/><polygon fill="#181818" points="328.81,563.05,331.7745,553.6579,328.2488,558.0816,323.8251,554.5559,328.81,563.05" style="stroke:#181818;stroke-width:1.0;"/></g><!--reverse link ??? to ???--><g id="link_&#24453;&#21021;&#23457;_&#24453;&#22797;&#23457;"><path d="M351.8697,492.5525 C354.4397,515.4325 353.77,540.21 351.19,563.05 " fill="none" id="&#24453;&#21021;&#23457;-backto-&#24453;&#22797;&#23457;" style="stroke:#181818;stroke-width:1.0;"/><polygon fill="#181818" points="351.2,486.59,348.2296,495.9802,351.7581,491.5588,356.1796,495.0873,351.2,486.59" style="stroke:#181818;stroke-width:1.0;"/></g><!--link ??? to ???????--><g id="link_&#24453;&#22797;&#23457;_&#24453;&#26426;&#26500;&#30003;&#25253;&#23457;&#26680;"><path d="M309.1,628.5 C291.18,646.98 272.8768,665.8625 254.9768,684.3225 " fill="none" id="&#24453;&#22797;&#23457;-to-&#24453;&#26426;&#26500;&#30003;&#25253;&#23457;&#26680;" style="stroke:#181818;stroke-width:1.0;"/><polygon fill="#181818" points="250.8,688.63,259.9369,684.9533,254.2807,685.0404,254.1936,679.3843,250.8,688.63" style="stroke:#181818;stroke-width:1.0;"/></g><!--link ??????? to ???????--><g id="link_&#24453;&#26426;&#26500;&#30003;&#25253;&#23457;&#26680;_&#24453;&#26426;&#26500;&#20837;&#36134;&#23457;&#26680;"><path d="M285.42,721.39 C296.83,721.39 302.24,721.39 313.65,721.39 " fill="none" id="&#24453;&#26426;&#26500;&#30003;&#25253;&#23457;&#26680;-to-&#24453;&#26426;&#26500;&#20837;&#36134;&#23457;&#26680;" style="stroke:#181818;stroke-width:1.0;"/><polygon fill="#181818" points="319.65,721.39,310.65,717.39,314.65,721.39,310.65,725.39,319.65,721.39" style="stroke:#181818;stroke-width:1.0;"/></g><!--link ??? to ???--><g id="link_&#24453;&#22797;&#23457;_&#24050;&#20837;&#36134;"><path d="M393.99,620.49 C421.52,635.78 452.4,658.51 468,689.01 C485.96,724.13 484.58,741.97 468,777.77 C459.27,796.62 447.556,808.7322 431.516,820.4422 " fill="none" id="&#24453;&#22797;&#23457;-to-&#24050;&#20837;&#36134;" style="stroke:#181818;stroke-width:1.0;"/><polygon fill="#181818" points="426.67,823.98,436.2976,821.9039,430.7083,821.0318,431.5805,815.4426,426.67,823.98" style="stroke:#181818;stroke-width:1.0;"/></g><!--link ??????? to ???--><g id="link_&#24453;&#26426;&#26500;&#20837;&#36134;&#23457;&#26680;_&#24050;&#20837;&#36134;"><path d="M385,754.12 C385,773.19 385,791.36 385,810.42 " fill="none" id="&#24453;&#26426;&#26500;&#20837;&#36134;&#23457;&#26680;-to-&#24050;&#20837;&#36134;" style="stroke:#181818;stroke-width:1.0;"/><polygon fill="#181818" points="385,816.42,389,807.42,385,811.42,381,807.42,385,816.42" style="stroke:#181818;stroke-width:1.0;"/></g><!--reverse link ????? to ???????--><g id="link_&#24050;&#20837;&#36134;&#33258;&#21160;_&#20851;&#32852;&#35746;&#21333;&#24453;&#31579;&#26597;"><path d="M119.32,291.13 C165.18,291.13 225.49,291.13 274.55,291.13 " fill="none" id="&#24050;&#20837;&#36134;&#33258;&#21160;-backto-&#20851;&#32852;&#35746;&#21333;&#24453;&#31579;&#26597;" style="stroke:#0000FF;stroke-width:1.0;stroke-dasharray:7.0,7.0;"/><polygon fill="#0000FF" points="113.32,291.13,122.32,295.13,118.32,291.13,122.32,287.13,113.32,291.13" style="stroke:#0000FF;stroke-width:1.0;"/><text fill="#0000FF" font-family="sans-serif" font-size="13" lengthAdjust="spacing" textLength="125" x="131.5" y="284.6984">PASSED&#65288;&#26242;&#19981;&#25903;&#25345;&#65289;</text></g><!--link ??????? to ???????--><g id="link_&#20851;&#32852;&#35746;&#21333;&#24453;&#31579;&#26597;_&#24453;&#26426;&#26500;&#30003;&#25253;&#23457;&#26680;"><path d="M306.94,323.68 C292.98,338.91 277.93,358.25 269,378.5 C222.08,484.95 218.0491,620.4005 218.8891,682.6705 " fill="none" id="&#20851;&#32852;&#35746;&#21333;&#24453;&#31579;&#26597;-to-&#24453;&#26426;&#26500;&#30003;&#25253;&#23457;&#26680;" style="stroke:#0000FF;stroke-width:1.0;"/><polygon fill="#0000FF" points="218.97,688.67,222.8482,679.6169,218.9026,683.6705,214.849,679.7248,218.97,688.67" style="stroke:#0000FF;stroke-width:1.0;"/><text fill="#0000FF" font-family="sans-serif" font-size="13" lengthAdjust="spacing" textLength="57" x="231.55" y="529.8284">PENDING</text></g><!--link ????? to *end*--><g id="link_&#24050;&#20837;&#36134;&#33258;&#21160;_*end*"><path d="M64.39,323.78 C68.5,356.15 74,407.92 74,452.88 C74,452.88 74,452.88 74,850.14 C74,884.73 83.3357,918.9746 88.9957,937.0346 " fill="none" id="&#24050;&#20837;&#36134;&#33258;&#21160;-to-*end*" style="stroke:#181818;stroke-width:1.0;"/><polygon fill="#181818" points="90.79,942.76,91.9154,932.9757,89.2947,937.9888,84.2815,935.3681,90.79,942.76" style="stroke:#181818;stroke-width:1.0;"/></g><!--link ??? to *end*--><g id="link_&#24050;&#20837;&#36134;_*end*"><path d="M343.31,864.81 C274.79,888.92 147.8399,933.5787 109.9799,946.8987 " fill="none" id="&#24050;&#20837;&#36134;-to-*end*" style="stroke:#181818;stroke-width:1.0;"/><polygon fill="#181818" points="104.32,948.89,114.1374,949.6764,109.0366,947.2306,111.4824,942.1298,104.32,948.89" style="stroke:#181818;stroke-width:1.0;"/></g><!--SRC=[XLDDIyD04BtdLonu4CHSF8eA5aKys8ezrXx4n0yehTI81n6i6ApLWc0LlxNIgWXMiAAb-F5dkfjuyY-OPBB99jdLN4BcpNipavcNwaaZMHv2k7Y1xtOb2Tv8JdLDgKhQ1jwUiLutNsxDxGTSkaVzQ60kbzNGR2wJom_cLMLeSZYP71sPpiRwOiR91zulu_AXKRadnRVfB910m1VFByulQ7w5JnthJRDGCHit5fLJO3G-CXuVupN7y2mPu_6CNDMHKC7lnwTPgi7wy3i4mcHdDy9VrcOq5P6BVN9qWXjLSjtgj1xHceIiXwzZ3H3BhAXqU6kgHZNKjOrxWpjANgAiv5QpBhLMjY8UxdmXUMM95NRGRXQtKQTFSlxmlN5gVctJd60KCfa6pMeTwtgdNIF71p1lk3GGo7cRN6uPbIOfrK6JvaKHznfO8foBIro71J7wz20T8Cg890bMeCmiBwXABsmYeyvf_nuxxCIvzf_t8ZdTxBJAfF94zWe_xplYGb0XCcNW9_onV2dSb3rVgYVD07we6v7ZJwFMDaglPAD03TEF9YQJoExM0VrmmWfxpW_P04YXA2ShmScIHFwn9KDE4UOwmbmCcgLNoTLaSDeWk86v9Z6LufGADfD4knF8S7DTIOv51EVyZtmeDo0VC19pBkvgFO-mI2A0I5572AWU7X20gFGB]--></g></svg>