<?xml version="1.0" encoding="us-ascii" standalone="no"?><svg xmlns="http://www.w3.org/2000/svg" xmlns:xlink="http://www.w3.org/1999/xlink" contentStyleType="text/css" height="970px" preserveAspectRatio="none" style="width:490px;height:970px;background:#FFFFFF;" version="1.1" viewBox="0 0 490 970" width="490px" zoomAndPan="magnify"><defs/><g><!--cluster ?????--><g id="cluster_&#26448;&#26009;&#23457;&#26680;&#20013;"><path d="M148.5,386.5 L450.5,386.5 A12.5,12.5 0 0 1 463,399 L463,407.9883 L136,407.9883 L136,399 A12.5,12.5 0 0 1 148.5,386.5 " fill="#F1F1F1" style="stroke:#F1F1F1;stroke-width:1.0;"/><rect fill="none" height="383.27" rx="12.5" ry="12.5" style="stroke:#181818;stroke-width:0.5;" width="327" x="136" y="386.5"/><line style="stroke:#181818;stroke-width:0.5;" x1="136" x2="463" y1="407.9883" y2="407.9883"/><text fill="#000000" font-family="sans-serif" font-size="14" lengthAdjust="spacing" textLength="70" x="264.5" y="404.0352">&#26448;&#26009;&#23457;&#26680;&#20013;</text></g><g id="&#26448;&#26009;&#23457;&#26680;&#20013;.&#24453;&#21021;&#23457;"><rect fill="#F1F1F1" height="64.7539" rx="12.5" ry="12.5" style="stroke:#181818;stroke-width:0.5;" width="107" x="282.5" y="421.5"/><line style="stroke:#181818;stroke-width:0.5;" x1="282.5" x2="389.5" y1="447.9883" y2="447.9883"/><text fill="#000000" font-family="sans-serif" font-size="14" lengthAdjust="spacing" textLength="42" x="315" y="440.0352">&#24453;&#21021;&#23457;</text><text fill="#000000" font-family="sans-serif" font-size="12" lengthAdjust="spacing" textLength="87" x="287.5" y="464.5898">MPS &#26448;&#26009;&#23457;&#26680;&#20013;</text><text fill="#000000" font-family="sans-serif" font-size="12" lengthAdjust="spacing" textLength="62" x="287.5" y="478.7227">OPS &#24453;&#21021;&#23457;</text></g><g id="&#26448;&#26009;&#23457;&#26680;&#20013;.&#24453;&#22797;&#23457;"><rect fill="#F1F1F1" height="64.7539" rx="12.5" ry="12.5" style="stroke:#181818;stroke-width:0.5;" width="107" x="282.5" y="563.26"/><line style="stroke:#181818;stroke-width:0.5;" x1="282.5" x2="389.5" y1="589.7483" y2="589.7483"/><text fill="#000000" font-family="sans-serif" font-size="14" lengthAdjust="spacing" textLength="42" x="315" y="581.7952">&#24453;&#22797;&#23457;</text><text fill="#000000" font-family="sans-serif" font-size="12" lengthAdjust="spacing" textLength="87" x="287.5" y="606.3498">MPS &#26448;&#26009;&#23457;&#26680;&#20013;</text><text fill="#000000" font-family="sans-serif" font-size="12" lengthAdjust="spacing" textLength="62" x="287.5" y="620.4827">OPS &#24453;&#22797;&#23457;</text></g><g id="&#26448;&#26009;&#23457;&#26680;&#20013;.&#24453;&#26426;&#26500;&#30003;&#25253;&#23457;&#26680;"><rect fill="#F1F1F1" height="64.7539" rx="12.5" ry="12.5" style="stroke:#181818;stroke-width:0.5;" width="130" x="152" y="689.01"/><line style="stroke:#181818;stroke-width:0.5;" x1="152" x2="282" y1="715.4983" y2="715.4983"/><text fill="#000000" font-family="sans-serif" font-size="14" lengthAdjust="spacing" textLength="98" x="168" y="707.5452">&#24453;&#26426;&#26500;&#30003;&#25253;&#23457;&#26680;</text><text fill="#000000" font-family="sans-serif" font-size="12" lengthAdjust="spacing" textLength="87" x="157" y="732.0998">MPS &#26448;&#26009;&#23457;&#26680;&#20013;</text><text fill="#000000" font-family="sans-serif" font-size="12" lengthAdjust="spacing" textLength="110" x="157" y="746.2327">OPS &#24453;&#26426;&#26500;&#30003;&#25253;&#23457;&#26680;</text></g><g id="&#26448;&#26009;&#23457;&#26680;&#20013;.&#24453;&#26426;&#26500;&#20837;&#36134;&#23457;&#26680;"><rect fill="#F1F1F1" height="64.7539" rx="12.5" ry="12.5" style="stroke:#181818;stroke-width:0.5;" width="130" x="317" y="689.01"/><line style="stroke:#181818;stroke-width:0.5;" x1="317" x2="447" y1="715.4983" y2="715.4983"/><text fill="#000000" font-family="sans-serif" font-size="14" lengthAdjust="spacing" textLength="98" x="333" y="707.5452">&#24453;&#26426;&#26500;&#20837;&#36134;&#23457;&#26680;</text><text fill="#000000" font-family="sans-serif" font-size="12" lengthAdjust="spacing" textLength="87" x="322" y="732.0998">MPS &#26448;&#26009;&#23457;&#26680;&#20013;</text><text fill="#000000" font-family="sans-serif" font-size="12" lengthAdjust="spacing" textLength="110" x="322" y="746.2327">OPS &#24453;&#26426;&#26500;&#20837;&#36134;&#23457;&#26680;</text></g><ellipse cx="154" cy="16" fill="#222222" rx="10" ry="10" style="stroke:#222222;stroke-width:1.0;"/><g id="&#21021;&#22987;"><rect fill="#F1F1F1" height="64.7539" rx="12.5" ry="12.5" style="stroke:#181818;stroke-width:0.5;" width="83" x="112.5" y="87"/><line style="stroke:#181818;stroke-width:0.5;" x1="112.5" x2="195.5" y1="113.4883" y2="113.4883"/><text fill="#000000" font-family="sans-serif" font-size="14" lengthAdjust="spacing" textLength="28" x="140" y="105.5352">&#21021;&#22987;</text><text fill="#000000" font-family="sans-serif" font-size="12" lengthAdjust="spacing" textLength="63" x="117.5" y="130.0898">MPS &#19981;&#26174;&#31034;</text><text fill="#000000" font-family="sans-serif" font-size="12" lengthAdjust="spacing" textLength="50" x="117.5" y="144.2227">OPS &#21021;&#22987;</text></g><g id="&#24050;&#20837;&#36134;&#33258;&#21160;"><rect fill="#F1F1F1" height="64.7539" rx="12.5" ry="12.5" style="stroke:#181818;stroke-width:0.5;" width="106" x="7" y="258.75"/><line style="stroke:#181818;stroke-width:0.5;" x1="7" x2="113" y1="285.2383" y2="285.2383"/><text fill="#000000" font-family="sans-serif" font-size="14" lengthAdjust="spacing" textLength="70" x="25" y="277.2852">&#24050;&#20837;&#36134;&#33258;&#21160;</text><text fill="#000000" font-family="sans-serif" font-size="12" lengthAdjust="spacing" textLength="63" x="12" y="301.8398">MPS &#24050;&#20837;&#36134;</text><text fill="#000000" font-family="sans-serif" font-size="12" lengthAdjust="spacing" textLength="86" x="12" y="315.9727">OPS &#24050;&#20837;&#36134;&#33258;&#21160;</text></g><g id="&#24453;&#20851;&#32852;&#35746;&#21333;"><rect fill="#F1F1F1" height="64.7539" rx="12.5" ry="12.5" style="stroke:#181818;stroke-width:0.5;" width="107" x="282.5" y="87"/><line style="stroke:#181818;stroke-width:0.5;" x1="282.5" x2="389.5" y1="113.4883" y2="113.4883"/><text fill="#000000" font-family="sans-serif" font-size="14" lengthAdjust="spacing" textLength="70" x="301" y="105.5352">&#24453;&#20851;&#32852;&#35746;&#21333;</text><text fill="#000000" font-family="sans-serif" font-size="12" lengthAdjust="spacing" textLength="87" x="287.5" y="130.0898">MPS &#24453;&#20851;&#32852;&#35746;&#21333;</text><text fill="#000000" font-family="sans-serif" font-size="12" lengthAdjust="spacing" textLength="86" x="287.5" y="144.2227">OPS &#24453;&#20851;&#32852;&#35746;&#21333;</text></g><g id="&#20851;&#32852;&#35746;&#21333;&#24453;&#31579;&#26597;"><rect fill="#F1F1F1" height="64.7539" rx="12.5" ry="12.5" style="stroke:#181818;stroke-width:0.5;" width="130" x="271" y="258.75"/><line style="stroke:#181818;stroke-width:0.5;" x1="271" x2="401" y1="285.2383" y2="285.2383"/><text fill="#000000" font-family="sans-serif" font-size="14" lengthAdjust="spacing" textLength="98" x="287" y="277.2852">&#20851;&#32852;&#35746;&#21333;&#24453;&#31579;&#26597;</text><text fill="#000000" font-family="sans-serif" font-size="12" lengthAdjust="spacing" textLength="87" x="276" y="301.8398">MPS &#26448;&#26009;&#23457;&#26680;&#20013;</text><text fill="#000000" font-family="sans-serif" font-size="12" lengthAdjust="spacing" textLength="110" x="276" y="315.9727">OPS &#20851;&#32852;&#35746;&#21333;&#24453;&#31579;&#26597;</text></g><g id="&#24050;&#20837;&#36134;"><rect fill="#F1F1F1" height="64.7539" rx="12.5" ry="12.5" style="stroke:#181818;stroke-width:0.5;" width="83" x="340.5" y="816.77"/><line style="stroke:#181818;stroke-width:0.5;" x1="340.5" x2="423.5" y1="843.2583" y2="843.2583"/><text fill="#000000" font-family="sans-serif" font-size="14" lengthAdjust="spacing" textLength="42" x="361" y="835.3052">&#24050;&#20837;&#36134;</text><text fill="#000000" font-family="sans-serif" font-size="12" lengthAdjust="spacing" textLength="63" x="345.5" y="859.8598">MPS &#24050;&#20837;&#36134;</text><text fill="#000000" font-family="sans-serif" font-size="12" lengthAdjust="spacing" textLength="62" x="345.5" y="873.9927">OPS &#24050;&#20837;&#36134;</text></g><ellipse cx="93" cy="953.52" fill="none" rx="11" ry="11" style="stroke:#222222;stroke-width:1.0;"/><ellipse cx="93" cy="953.52" fill="#222222" rx="6" ry="6" style="stroke:#222222;stroke-width:1.0;"/><!--link *start* to ??--><g id="link_*start*_&#21021;&#22987;"><path d="M154,26.35 C154,39.98 154,59.94 154,80.82 " fill="none" id="*start*-to-&#21021;&#22987;" style="stroke:#181818;stroke-width:1.0;"/><polygon fill="#181818" points="154,86.82,158,77.82,154,81.82,150,77.82,154,86.82" style="stroke:#181818;stroke-width:1.0;"/></g><!--link ?? to ?????--><g id="link_&#21021;&#22987;_&#24050;&#20837;&#36134;&#33258;&#21160;"><path d="M112.24,144.8 C98.95,154.63 85.51,167.12 77,181.75 C63.4,205.13 59.8285,229.9224 59.1885,252.7024 " fill="none" id="&#21021;&#22987;-to-&#24050;&#20837;&#36134;&#33258;&#21160;" style="stroke:#FF0000;stroke-width:1.0;"/><polygon fill="#FF0000" points="59.02,258.7,63.2712,249.8159,59.1604,253.702,55.2743,249.5912,59.02,258.7" style="stroke:#FF0000;stroke-width:1.0;"/><text fill="#FF0000" font-family="sans-serif" font-size="13" lengthAdjust="spacing" textLength="43" x="100" y="195.3184">Passed</text><text fill="#000000" font-family="sans-serif" font-size="13" lengthAdjust="spacing" textLength="87" x="78" y="210.6289">B2B&#30333;&#21517;&#21333;&#29992;&#25143;</text><text fill="#000000" font-family="sans-serif" font-size="13" lengthAdjust="spacing" textLength="52" x="95.5" y="225.9395">&#33258;&#21160;&#20837;&#36134;</text></g><!--link ?? to ?????--><g id="link_&#21021;&#22987;_&#24453;&#20851;&#32852;&#35746;&#21333;"><path d="M195.75,119.37 C221.47,119.37 248.68,119.37 276.34,119.37 " fill="none" id="&#21021;&#22987;-to-&#24453;&#20851;&#32852;&#35746;&#21333;" style="stroke:#FF0000;stroke-width:1.0;"/><polygon fill="#FF0000" points="282.34,119.37,273.34,115.37,277.34,119.37,273.34,123.37,282.34,119.37" style="stroke:#FF0000;stroke-width:1.0;"/><text fill="#FF0000" font-family="sans-serif" font-size="13" lengthAdjust="spacing" textLength="50" x="214" y="112.9384">Skipped</text></g><!--link ?? to ???????--><g id="link_&#21021;&#22987;_&#20851;&#32852;&#35746;&#21333;&#24453;&#31579;&#26597;"><path d="M178.06,152.11 C196.03,174.77 221.89,205.26 248,228.75 C259.63,239.22 268.1825,245.9823 281.0425,254.9723 " fill="none" id="&#21021;&#22987;-to-&#20851;&#32852;&#35746;&#21333;&#24453;&#31579;&#26597;" style="stroke:#FF0000;stroke-width:1.0;"/><polygon fill="#FF0000" points="285.96,258.41,280.8755,249.9751,281.862,255.5453,276.2919,256.5318,285.96,258.41" style="stroke:#FF0000;stroke-width:1.0;"/><text fill="#FF0000" font-family="sans-serif" font-size="13" lengthAdjust="spacing" textLength="50" x="263" y="202.8184">Skipped</text><text fill="#000000" font-family="sans-serif" font-size="13" lengthAdjust="spacing" textLength="78" x="249" y="218.1289">&#33258;&#21160;&#20851;&#32852;&#35746;&#21333;</text></g><!--link ????? to ???????--><g id="link_&#24453;&#20851;&#32852;&#35746;&#21333;_&#20851;&#32852;&#35746;&#21333;&#24453;&#31579;&#26597;"><path d="M336,151.9 C336,182.3 336,222.04 336,252.48 " fill="none" id="&#24453;&#20851;&#32852;&#35746;&#21333;-to-&#20851;&#32852;&#35746;&#21333;&#24453;&#31579;&#26597;" style="stroke:#181818;stroke-width:1.0;"/><polygon fill="#181818" points="336,258.48,340,249.48,336,253.48,332,249.48,336,258.48" style="stroke:#181818;stroke-width:1.0;"/><text fill="#000000" font-family="sans-serif" font-size="13" lengthAdjust="spacing" textLength="78" x="337" y="210.3184">&#25163;&#21160;&#20851;&#32852;&#35746;&#21333;</text></g><!--link ??????? to ???--><g id="link_&#20851;&#32852;&#35746;&#21333;&#24453;&#31579;&#26597;_&#24453;&#21021;&#23457;"><path d="M336,323.89 C336,352.07 336,387.03 336,415.19 " fill="none" id="&#20851;&#32852;&#35746;&#21333;&#24453;&#31579;&#26597;-to-&#24453;&#21021;&#23457;" style="stroke:#0000FF;stroke-width:1.0;"/><polygon fill="#0000FF" points="336,421.19,340,412.19,336,416.19,332,412.19,336,421.19" style="stroke:#0000FF;stroke-width:1.0;"/><text fill="#0000FF" font-family="sans-serif" font-size="13" lengthAdjust="spacing" textLength="50" x="337" y="367.0684">Skipped</text></g><!--link ??? to ???--><g id="link_&#24453;&#21021;&#23457;_&#24453;&#22797;&#23457;"><path d="M324.8,486.59 C322.23,509.47 321.5565,534.2479 324.1365,557.0879 " fill="none" id="&#24453;&#21021;&#23457;-to-&#24453;&#22797;&#23457;" style="stroke:#181818;stroke-width:1.0;"/><polygon fill="#181818" points="324.81,563.05,327.7745,553.6579,324.2488,558.0816,319.8251,554.5559,324.81,563.05" style="stroke:#181818;stroke-width:1.0;"/></g><!--reverse link ??? to ???--><g id="link_&#24453;&#21021;&#23457;_&#24453;&#22797;&#23457;"><path d="M347.8697,492.5525 C350.4397,515.4325 349.77,540.21 347.19,563.05 " fill="none" id="&#24453;&#21021;&#23457;-backto-&#24453;&#22797;&#23457;" style="stroke:#181818;stroke-width:1.0;"/><polygon fill="#181818" points="347.2,486.59,344.2296,495.9802,347.7581,491.5588,352.1796,495.0873,347.2,486.59" style="stroke:#181818;stroke-width:1.0;"/></g><!--link ??? to ???????--><g id="link_&#24453;&#22797;&#23457;_&#24453;&#26426;&#26500;&#30003;&#25253;&#23457;&#26680;"><path d="M305.35,628.5 C287.59,646.98 269.4487,665.845 251.6987,684.305 " fill="none" id="&#24453;&#22797;&#23457;-to-&#24453;&#26426;&#26500;&#30003;&#25253;&#23457;&#26680;" style="stroke:#181818;stroke-width:1.0;"/><polygon fill="#181818" points="247.54,688.63,256.6613,684.9149,251.0055,685.0258,250.8946,679.3701,247.54,688.63" style="stroke:#181818;stroke-width:1.0;"/></g><!--link ??????? to ???????--><g id="link_&#24453;&#26426;&#26500;&#30003;&#25253;&#23457;&#26680;_&#24453;&#26426;&#26500;&#20837;&#36134;&#23457;&#26680;"><path d="M282.42,721.39 C293.83,721.39 299.24,721.39 310.65,721.39 " fill="none" id="&#24453;&#26426;&#26500;&#30003;&#25253;&#23457;&#26680;-to-&#24453;&#26426;&#26500;&#20837;&#36134;&#23457;&#26680;" style="stroke:#181818;stroke-width:1.0;"/><polygon fill="#181818" points="316.65,721.39,307.65,717.39,311.65,721.39,307.65,725.39,316.65,721.39" style="stroke:#181818;stroke-width:1.0;"/></g><!--link ??? to ???--><g id="link_&#24453;&#22797;&#23457;_&#24050;&#20837;&#36134;"><path d="M389.74,620.02 C417.64,635.28 449.14,658.14 465,689.01 C483.03,724.1 481.58,741.97 465,777.77 C456.27,796.62 444.556,808.7322 428.516,820.4422 " fill="none" id="&#24453;&#22797;&#23457;-to-&#24050;&#20837;&#36134;" style="stroke:#181818;stroke-width:1.0;"/><polygon fill="#181818" points="423.67,823.98,433.2976,821.9039,427.7083,821.0318,428.5805,815.4426,423.67,823.98" style="stroke:#181818;stroke-width:1.0;"/></g><!--link ??????? to ???--><g id="link_&#24453;&#26426;&#26500;&#20837;&#36134;&#23457;&#26680;_&#24050;&#20837;&#36134;"><path d="M382,754.12 C382,773.19 382,791.36 382,810.42 " fill="none" id="&#24453;&#26426;&#26500;&#20837;&#36134;&#23457;&#26680;-to-&#24050;&#20837;&#36134;" style="stroke:#181818;stroke-width:1.0;"/><polygon fill="#181818" points="382,816.42,386,807.42,382,811.42,378,807.42,382,816.42" style="stroke:#181818;stroke-width:1.0;"/></g><!--reverse link ????? to ???????--><g id="link_&#24050;&#20837;&#36134;&#33258;&#21160;_&#20851;&#32852;&#35746;&#21333;&#24453;&#31579;&#26597;"><path d="M119.22,291.13 C164.09,291.13 222.51,291.13 270.54,291.13 " fill="none" id="&#24050;&#20837;&#36134;&#33258;&#21160;-backto-&#20851;&#32852;&#35746;&#21333;&#24453;&#31579;&#26597;" style="stroke:#0000FF;stroke-width:1.0;stroke-dasharray:7.0,7.0;"/><polygon fill="#0000FF" points="113.22,291.13,122.22,295.13,118.22,291.13,122.22,287.13,113.22,291.13" style="stroke:#0000FF;stroke-width:1.0;"/><text fill="#0000FF" font-family="sans-serif" font-size="13" lengthAdjust="spacing" textLength="121" x="131.5" y="284.6984">Passed&#65288;&#26242;&#19981;&#25903;&#25345;&#65289;</text></g><!--link ??????? to ???????--><g id="link_&#20851;&#32852;&#35746;&#21333;&#24453;&#31579;&#26597;_&#24453;&#26426;&#26500;&#30003;&#25253;&#23457;&#26680;"><path d="M302.91,323.67 C288.95,338.9 273.9,358.24 265,378.5 C218.25,484.97 214.6869,620.4109 215.7569,682.6809 " fill="none" id="&#20851;&#32852;&#35746;&#21333;&#24453;&#31579;&#26597;-to-&#24453;&#26426;&#26500;&#30003;&#25253;&#23457;&#26680;" style="stroke:#0000FF;stroke-width:1.0;"/><polygon fill="#0000FF" points="215.86,688.68,219.7048,679.6126,215.7741,683.6807,211.706,679.7501,215.86,688.68" style="stroke:#0000FF;stroke-width:1.0;"/><text fill="#0000FF" font-family="sans-serif" font-size="13" lengthAdjust="spacing" textLength="50" x="227.87" y="529.8284">Skipped</text></g><!--link ????? to *end*--><g id="link_&#24050;&#20837;&#36134;&#33258;&#21160;_*end*"><path d="M64.08,323.79 C67.89,356.16 73,407.94 73,452.88 C73,452.88 73,452.88 73,850.14 C73,884.73 82.3357,918.9746 87.9957,937.0346 " fill="none" id="&#24050;&#20837;&#36134;&#33258;&#21160;-to-*end*" style="stroke:#181818;stroke-width:1.0;"/><polygon fill="#181818" points="89.79,942.76,90.9154,932.9757,88.2947,937.9888,83.2815,935.3681,89.79,942.76" style="stroke:#181818;stroke-width:1.0;"/></g><!--link ??? to *end*--><g id="link_&#24050;&#20837;&#36134;_*end*"><path d="M340.29,864.92 C272.29,889.01 146.9855,933.3963 109.1355,946.8063 " fill="none" id="&#24050;&#20837;&#36134;-to-*end*" style="stroke:#181818;stroke-width:1.0;"/><polygon fill="#181818" points="103.48,948.81,113.2991,949.5748,108.1929,947.1402,110.6275,942.0341,103.48,948.81" style="stroke:#181818;stroke-width:1.0;"/></g><!--SRC=[XLFBIiDG4DtdAowuA8ZPk2pgedkfwBBjefZumDAMDk92X5OCrcf1i8glgfLMIy4ALcmfFdwczoQk_0MJJ6voyxYQJSYSEMTcCdCIaoaaYdC8LnhuyL0Gu8t4nCIYBALCOF22rRR- -g3lTt6rWw9ePYMNLT1oBfChp1PaQMuXNIpAKZ8Rcuvf5n_uk8PhfrgzGog3P1P88E2A5zPNrnItmgUArRvUhkkzUuCQBB2qiPxFor9OSmpFaD6UhiXj6t4Lt7vScg7ghG-_WoDC3Wu3_AAILcH46iVax0BtckHkE1u-eMq16K-uZZ50BBCfq-6DgNfDNzScxWnkAJc9efJRojhKLis8EBZrXSJDF2jieH4MDr6hJtBT_IvTwb_xDCSRXKocGRtPngew7hN8-GdCwoyD178z8ZTxMhrFgctGf7b1nBu6bWZdOXDtO46CFZr82mWo0acS5KZfufeiJS4cClAAyk-nMpk1Q_zvhv3BtV6mHkhFvAZyytx0BmGL0bDwVi8VonVyJPdp9IPJ3E268eYSVsgjaLPz8wKoDKmKpIyi8RDR2tJ3SIFiEDzd0o3veY5PyP0iWUSVKzBd56wk9HoAGRFqAaCr6Pms26vWhebFfJYbWiq4tkuuCg6vjcI8HJZd_8-yBzSZxp4ISoxsQXsFi4ZSWmX1Ht2e3kuHWAZm2m00]--></g></svg>