<?xml version="1.0" encoding="us-ascii" standalone="no"?><svg xmlns="http://www.w3.org/2000/svg" xmlns:xlink="http://www.w3.org/1999/xlink" contentStyleType="text/css" height="989px" preserveAspectRatio="none" style="width:544px;height:989px;background:#FFFFFF;" version="1.1" viewBox="0 0 544 989" width="544px" zoomAndPan="magnify"><defs/><g><!--cluster ?????--><g id="cluster_&#26448;&#26009;&#23457;&#26680;&#20013;"><path d="M216.5,386.5 L518.5,386.5 A12.5,12.5 0 0 1 531,399 L531,407.9883 L204,407.9883 L204,399 A12.5,12.5 0 0 1 216.5,386.5 " fill="#F1F1F1" style="stroke:#F1F1F1;stroke-width:1.0;"/><rect fill="none" height="402.27" rx="12.5" ry="12.5" style="stroke:#181818;stroke-width:0.5;" width="327" x="204" y="386.5"/><line style="stroke:#181818;stroke-width:0.5;" x1="204" x2="531" y1="407.9883" y2="407.9883"/><text fill="#000000" font-family="sans-serif" font-size="14" lengthAdjust="spacing" textLength="70" x="332.5" y="404.0352">&#26448;&#26009;&#23457;&#26680;&#20013;</text></g><g id="&#26448;&#26009;&#23457;&#26680;&#20013;.&#24453;&#21021;&#23457;"><rect fill="#F1F1F1" height="64.7539" rx="12.5" ry="12.5" style="stroke:#181818;stroke-width:0.5;" width="107" x="224.5" y="440.5"/><line style="stroke:#181818;stroke-width:0.5;" x1="224.5" x2="331.5" y1="466.9883" y2="466.9883"/><text fill="#000000" font-family="sans-serif" font-size="14" lengthAdjust="spacing" textLength="42" x="257" y="459.0352">&#24453;&#21021;&#23457;</text><text fill="#000000" font-family="sans-serif" font-size="12" lengthAdjust="spacing" textLength="87" x="229.5" y="483.5898">MPS &#26448;&#26009;&#23457;&#26680;&#20013;</text><text fill="#000000" font-family="sans-serif" font-size="12" lengthAdjust="spacing" textLength="62" x="229.5" y="497.7227">OPS &#24453;&#21021;&#23457;</text></g><g id="&#26448;&#26009;&#23457;&#26680;&#20013;.&#24453;&#22797;&#23457;"><rect fill="#F1F1F1" height="64.7539" rx="12.5" ry="12.5" style="stroke:#181818;stroke-width:0.5;" width="107" x="224.5" y="582.26"/><line style="stroke:#181818;stroke-width:0.5;" x1="224.5" x2="331.5" y1="608.7483" y2="608.7483"/><text fill="#000000" font-family="sans-serif" font-size="14" lengthAdjust="spacing" textLength="42" x="257" y="600.7952">&#24453;&#22797;&#23457;</text><text fill="#000000" font-family="sans-serif" font-size="12" lengthAdjust="spacing" textLength="87" x="229.5" y="625.3498">MPS &#26448;&#26009;&#23457;&#26680;&#20013;</text><text fill="#000000" font-family="sans-serif" font-size="12" lengthAdjust="spacing" textLength="62" x="229.5" y="639.4827">OPS &#24453;&#22797;&#23457;</text></g><g id="&#26448;&#26009;&#23457;&#26680;&#20013;.&#24453;&#26426;&#26500;&#30003;&#25253;&#23457;&#26680;"><rect fill="#F1F1F1" height="64.7539" rx="12.5" ry="12.5" style="stroke:#181818;stroke-width:0.5;" width="130" x="220" y="708.01"/><line style="stroke:#181818;stroke-width:0.5;" x1="220" x2="350" y1="734.4983" y2="734.4983"/><text fill="#000000" font-family="sans-serif" font-size="14" lengthAdjust="spacing" textLength="98" x="236" y="726.5452">&#24453;&#26426;&#26500;&#30003;&#25253;&#23457;&#26680;</text><text fill="#000000" font-family="sans-serif" font-size="12" lengthAdjust="spacing" textLength="87" x="225" y="751.0998">MPS &#26448;&#26009;&#23457;&#26680;&#20013;</text><text fill="#000000" font-family="sans-serif" font-size="12" lengthAdjust="spacing" textLength="110" x="225" y="765.2327">OPS &#24453;&#26426;&#26500;&#30003;&#25253;&#23457;&#26680;</text></g><g id="&#26448;&#26009;&#23457;&#26680;&#20013;.&#24453;&#26426;&#26500;&#20837;&#36134;&#23457;&#26680;"><rect fill="#F1F1F1" height="64.7539" rx="12.5" ry="12.5" style="stroke:#181818;stroke-width:0.5;" width="130" x="385" y="708.01"/><line style="stroke:#181818;stroke-width:0.5;" x1="385" x2="515" y1="734.4983" y2="734.4983"/><text fill="#000000" font-family="sans-serif" font-size="14" lengthAdjust="spacing" textLength="98" x="401" y="726.5452">&#24453;&#26426;&#26500;&#20837;&#36134;&#23457;&#26680;</text><text fill="#000000" font-family="sans-serif" font-size="12" lengthAdjust="spacing" textLength="87" x="390" y="751.0998">MPS &#26448;&#26009;&#23457;&#26680;&#20013;</text><text fill="#000000" font-family="sans-serif" font-size="12" lengthAdjust="spacing" textLength="110" x="390" y="765.2327">OPS &#24453;&#26426;&#26500;&#20837;&#36134;&#23457;&#26680;</text></g><ellipse cx="239" cy="16" fill="#222222" rx="10" ry="10" style="stroke:#222222;stroke-width:1.0;"/><g id="&#21021;&#22987;"><rect fill="#F1F1F1" height="64.7539" rx="12.5" ry="12.5" style="stroke:#181818;stroke-width:0.5;" width="83" x="197.5" y="87"/><line style="stroke:#181818;stroke-width:0.5;" x1="197.5" x2="280.5" y1="113.4883" y2="113.4883"/><text fill="#000000" font-family="sans-serif" font-size="14" lengthAdjust="spacing" textLength="28" x="225" y="105.5352">&#21021;&#22987;</text><text fill="#000000" font-family="sans-serif" font-size="12" lengthAdjust="spacing" textLength="63" x="202.5" y="130.0898">MPS &#19981;&#26174;&#31034;</text><text fill="#000000" font-family="sans-serif" font-size="12" lengthAdjust="spacing" textLength="50" x="202.5" y="144.2227">OPS &#21021;&#22987;</text></g><g id="&#24050;&#20837;&#36134;&#33258;&#21160;"><rect fill="#F1F1F1" height="64.7539" rx="12.5" ry="12.5" style="stroke:#181818;stroke-width:0.5;" width="106" x="7" y="258.75"/><line style="stroke:#181818;stroke-width:0.5;" x1="7" x2="113" y1="285.2383" y2="285.2383"/><text fill="#000000" font-family="sans-serif" font-size="14" lengthAdjust="spacing" textLength="70" x="25" y="277.2852">&#24050;&#20837;&#36134;&#33258;&#21160;</text><text fill="#000000" font-family="sans-serif" font-size="12" lengthAdjust="spacing" textLength="63" x="12" y="301.8398">MPS &#24050;&#20837;&#36134;</text><text fill="#000000" font-family="sans-serif" font-size="12" lengthAdjust="spacing" textLength="86" x="12" y="315.9727">OPS &#24050;&#20837;&#36134;&#33258;&#21160;</text></g><g id="&#24453;&#20851;&#32852;&#35746;&#21333;"><rect fill="#F1F1F1" height="64.7539" rx="12.5" ry="12.5" style="stroke:#181818;stroke-width:0.5;" width="107" x="398.5" y="87"/><line style="stroke:#181818;stroke-width:0.5;" x1="398.5" x2="505.5" y1="113.4883" y2="113.4883"/><text fill="#000000" font-family="sans-serif" font-size="14" lengthAdjust="spacing" textLength="70" x="417" y="105.5352">&#24453;&#20851;&#32852;&#35746;&#21333;</text><text fill="#000000" font-family="sans-serif" font-size="12" lengthAdjust="spacing" textLength="87" x="403.5" y="130.0898">MPS &#24453;&#20851;&#32852;&#35746;&#21333;</text><text fill="#000000" font-family="sans-serif" font-size="12" lengthAdjust="spacing" textLength="86" x="403.5" y="144.2227">OPS &#24453;&#20851;&#32852;&#35746;&#21333;</text></g><g id="&#20851;&#32852;&#35746;&#21333;&#24453;&#31579;&#26597;"><rect fill="#F1F1F1" height="64.7539" rx="12.5" ry="12.5" style="stroke:#181818;stroke-width:0.5;" width="130" x="324" y="258.75"/><line style="stroke:#181818;stroke-width:0.5;" x1="324" x2="454" y1="285.2383" y2="285.2383"/><text fill="#000000" font-family="sans-serif" font-size="14" lengthAdjust="spacing" textLength="98" x="340" y="277.2852">&#20851;&#32852;&#35746;&#21333;&#24453;&#31579;&#26597;</text><text fill="#000000" font-family="sans-serif" font-size="12" lengthAdjust="spacing" textLength="87" x="329" y="301.8398">MPS &#26448;&#26009;&#23457;&#26680;&#20013;</text><text fill="#000000" font-family="sans-serif" font-size="12" lengthAdjust="spacing" textLength="110" x="329" y="315.9727">OPS &#20851;&#32852;&#35746;&#21333;&#24453;&#31579;&#26597;</text></g><g id="&#24050;&#20837;&#36134;"><rect fill="#F1F1F1" height="64.7539" rx="12.5" ry="12.5" style="stroke:#181818;stroke-width:0.5;" width="83" x="125.5" y="835.77"/><line style="stroke:#181818;stroke-width:0.5;" x1="125.5" x2="208.5" y1="862.2583" y2="862.2583"/><text fill="#000000" font-family="sans-serif" font-size="14" lengthAdjust="spacing" textLength="42" x="146" y="854.3052">&#24050;&#20837;&#36134;</text><text fill="#000000" font-family="sans-serif" font-size="12" lengthAdjust="spacing" textLength="63" x="130.5" y="878.8598">MPS &#24050;&#20837;&#36134;</text><text fill="#000000" font-family="sans-serif" font-size="12" lengthAdjust="spacing" textLength="62" x="130.5" y="892.9927">OPS &#24050;&#20837;&#36134;</text></g><ellipse cx="91" cy="972.52" fill="none" rx="11" ry="11" style="stroke:#222222;stroke-width:1.0;"/><ellipse cx="91" cy="972.52" fill="#222222" rx="6" ry="6" style="stroke:#222222;stroke-width:1.0;"/><!--link *start* to ??--><g id="link_*start*_&#21021;&#22987;"><path d="M239,26.35 C239,39.98 239,59.94 239,80.82 " fill="none" id="*start*-to-&#21021;&#22987;" style="stroke:#181818;stroke-width:1.0;"/><polygon fill="#181818" points="239,86.82,243,77.82,239,81.82,235,77.82,239,86.82" style="stroke:#181818;stroke-width:1.0;"/></g><!--link ?? to ?????--><g id="link_&#21021;&#22987;_&#24050;&#20837;&#36134;&#33258;&#21160;"><path d="M197.06,121.91 C155.22,125.94 92.85,139.24 62,181.75 C46.08,203.68 46.3731,229.3256 50.6031,252.7356 " fill="none" id="&#21021;&#22987;-to-&#24050;&#20837;&#36134;&#33258;&#21160;" style="stroke:#FF0000;stroke-width:1.0;"/><polygon fill="#FF0000" points="51.67,258.64,54.0059,249.0722,50.7809,253.7197,46.1334,250.4947,51.67,258.64" style="stroke:#FF0000;stroke-width:1.0;"/><text fill="#FF0000" font-family="sans-serif" font-size="13" lengthAdjust="spacing" textLength="43" x="85" y="195.3184">Passed</text><text fill="#000000" font-family="sans-serif" font-size="13" lengthAdjust="spacing" textLength="87" x="63" y="210.6289">B2B&#30333;&#21517;&#21333;&#29992;&#25143;</text><text fill="#000000" font-family="sans-serif" font-size="13" lengthAdjust="spacing" textLength="52" x="80.5" y="225.9395">&#33258;&#21160;&#20837;&#36134;</text></g><!--link ?? to ?????--><g id="link_&#21021;&#22987;_&#24453;&#20851;&#32852;&#35746;&#21333;"><path d="M280.83,119.37 C314.39,119.37 355.74,119.37 392.13,119.37 " fill="none" id="&#21021;&#22987;-to-&#24453;&#20851;&#32852;&#35746;&#21333;" style="stroke:#FF0000;stroke-width:1.0;"/><polygon fill="#FF0000" points="398.13,119.37,389.13,115.37,393.13,119.37,389.13,123.37,398.13,119.37" style="stroke:#FF0000;stroke-width:1.0;"/><text fill="#FF0000" font-family="sans-serif" font-size="13" lengthAdjust="spacing" textLength="50" x="314.5" y="112.9384">Skipped</text></g><!--link ?? to ???????--><g id="link_&#21021;&#22987;_&#20851;&#32852;&#35746;&#21333;&#24453;&#31579;&#26597;"><path d="M280.75,145.02 C295.81,155.17 312.23,167.83 325,181.75 C336.41,194.19 354.4974,225.8169 369.3174,253.1169 " fill="none" id="&#21021;&#22987;-to-&#20851;&#32852;&#35746;&#21333;&#24453;&#31579;&#26597;" style="stroke:#FF0000;stroke-width:1.0;"/><polygon fill="#FF0000" points="372.18,258.39,371.4016,248.572,369.7945,253.9957,364.3708,252.3887,372.18,258.39" style="stroke:#FF0000;stroke-width:1.0;"/><text fill="#FF0000" font-family="sans-serif" font-size="13" lengthAdjust="spacing" textLength="50" x="368.99" y="202.8184">Skipped</text><text fill="#000000" font-family="sans-serif" font-size="13" lengthAdjust="spacing" textLength="78" x="354.99" y="218.1289">&#33258;&#21160;&#20851;&#32852;&#35746;&#21333;</text></g><!--link ????? to ???????--><g id="link_&#24453;&#20851;&#32852;&#35746;&#21333;_&#20851;&#32852;&#35746;&#21333;&#24453;&#31579;&#26597;"><path d="M455.35,152 C456.45,174.32 455.33,204.46 445,228.75 C440.43,239.5 437.1332,245.1217 429.3132,253.8917 " fill="none" id="&#24453;&#20851;&#32852;&#35746;&#21333;-to-&#20851;&#32852;&#35746;&#21333;&#24453;&#31579;&#26597;" style="stroke:#181818;stroke-width:1.0;"/><polygon fill="#181818" points="425.32,258.37,434.2952,254.3147,428.6476,254.6381,428.3242,248.9905,425.32,258.37" style="stroke:#181818;stroke-width:1.0;"/><text fill="#000000" font-family="sans-serif" font-size="13" lengthAdjust="spacing" textLength="78" x="456.08" y="210.3184">&#25163;&#21160;&#20851;&#32852;&#35746;&#21333;</text></g><!--link ?? to ???--><g id="link_&#21021;&#22987;_&#24453;&#21021;&#23457;"><path d="M213.42,152.07 C207.52,161.14 202.08,171.39 199,181.75 C194.25,197.74 191.98,291.72 200,323.5 C210.9,366.68 233.3396,406.2227 252.2796,435.1027 " fill="none" id="&#21021;&#22987;-to-&#24453;&#21021;&#23457;" style="stroke:#FF0000;stroke-width:1.0;"/><polygon fill="#FF0000" points="255.57,440.12,253.9792,430.4005,252.828,435.9389,247.2895,434.7877,255.57,440.12" style="stroke:#FF0000;stroke-width:1.0;"/><text fill="#FF0000" font-family="sans-serif" font-size="13" lengthAdjust="spacing" textLength="50" x="228" y="288.6984">Skipped</text><text fill="#000000" font-family="sans-serif" font-size="13" lengthAdjust="spacing" textLength="104" x="201" y="304.0089">&#20184;&#27454;&#20154;&#21517;&#31216;&#32570;&#22833;&#26102;</text></g><!--link ??????? to ???--><g id="link_&#20851;&#32852;&#35746;&#21333;&#24453;&#31579;&#26597;_&#24453;&#21021;&#23457;"><path d="M337.3,323.72 C326.67,332.25 316.46,342.28 309,353.5 C291.66,379.61 284.8038,408.9827 281.4338,434.2327 " fill="none" id="&#20851;&#32852;&#35746;&#21333;&#24453;&#31579;&#26597;-to-&#24453;&#21021;&#23457;" style="stroke:#0000FF;stroke-width:1.0;"/><polygon fill="#0000FF" points="280.64,440.18,285.7955,431.7883,281.3015,435.2239,277.8658,430.7299,280.64,440.18" style="stroke:#0000FF;stroke-width:1.0;"/><text fill="#0000FF" font-family="sans-serif" font-size="13" lengthAdjust="spacing" textLength="50" x="310" y="367.0684">Skipped</text></g><!--link ??? to ???--><g id="link_&#24453;&#21021;&#23457;_&#24453;&#22797;&#23457;"><path d="M266.8,505.59 C264.23,528.47 263.5565,553.2479 266.1365,576.0879 " fill="none" id="&#24453;&#21021;&#23457;-to-&#24453;&#22797;&#23457;" style="stroke:#181818;stroke-width:1.0;"/><polygon fill="#181818" points="266.81,582.05,269.7745,572.6579,266.2488,577.0816,261.8251,573.5559,266.81,582.05" style="stroke:#181818;stroke-width:1.0;"/></g><!--reverse link ??? to ???--><g id="link_&#24453;&#21021;&#23457;_&#24453;&#22797;&#23457;"><path d="M289.8697,511.5525 C292.4397,534.4325 291.77,559.21 289.19,582.05 " fill="none" id="&#24453;&#21021;&#23457;-backto-&#24453;&#22797;&#23457;" style="stroke:#181818;stroke-width:1.0;"/><polygon fill="#181818" points="289.2,505.59,286.2296,514.9802,289.7581,510.5588,294.1796,514.0873,289.2,505.59" style="stroke:#181818;stroke-width:1.0;"/></g><!--link ??? to ???????--><g id="link_&#24453;&#22797;&#23457;_&#24453;&#26426;&#26500;&#30003;&#25253;&#23457;&#26680;"><path d="M279.8,647.5 C280.85,665.98 281.8225,683.1795 282.8625,701.6395 " fill="none" id="&#24453;&#22797;&#23457;-to-&#24453;&#26426;&#26500;&#30003;&#25253;&#23457;&#26680;" style="stroke:#181818;stroke-width:1.0;"/><polygon fill="#181818" points="283.2,707.63,286.6874,698.4193,282.9188,702.6379,278.7001,698.8692,283.2,707.63" style="stroke:#181818;stroke-width:1.0;"/></g><!--link ??????? to ???????--><g id="link_&#24453;&#26426;&#26500;&#30003;&#25253;&#23457;&#26680;_&#24453;&#26426;&#26500;&#20837;&#36134;&#23457;&#26680;"><path d="M350.42,740.39 C361.83,740.39 367.24,740.39 378.65,740.39 " fill="none" id="&#24453;&#26426;&#26500;&#30003;&#25253;&#23457;&#26680;-to-&#24453;&#26426;&#26500;&#20837;&#36134;&#23457;&#26680;" style="stroke:#181818;stroke-width:1.0;"/><polygon fill="#181818" points="384.65,740.39,375.65,736.39,379.65,740.39,375.65,744.39,384.65,740.39" style="stroke:#181818;stroke-width:1.0;"/></g><!--link ??? to ???--><g id="link_&#24453;&#22797;&#23457;_&#24050;&#20837;&#36134;"><path d="M245.67,647.17 C230.28,663.9 212.9,685.6 202,708.01 C181.9,749.35 173.8796,796.3664 170.2096,829.5464 " fill="none" id="&#24453;&#22797;&#23457;-to-&#24050;&#20837;&#36134;" style="stroke:#181818;stroke-width:1.0;"/><polygon fill="#181818" points="169.55,835.51,174.5152,827.0043,170.0997,830.5403,166.5637,826.1248,169.55,835.51" style="stroke:#181818;stroke-width:1.0;"/></g><!--link ??????? to ???--><g id="link_&#24453;&#26426;&#26500;&#20837;&#36134;&#23457;&#26680;_&#24050;&#20837;&#36134;"><path d="M407.44,773.16 C395.1,781.52 381.36,790.06 368,796.77 C315.3,823.23 256.0074,842.3854 214.4574,854.3054 " fill="none" id="&#24453;&#26426;&#26500;&#20837;&#36134;&#23457;&#26680;-to-&#24050;&#20837;&#36134;" style="stroke:#181818;stroke-width:1.0;"/><polygon fill="#181818" points="208.69,855.96,218.4441,857.3231,213.4961,854.5812,216.238,849.6333,208.69,855.96" style="stroke:#181818;stroke-width:1.0;"/></g><!--reverse link ????? to ???????--><g id="link_&#24050;&#20837;&#36134;&#33258;&#21160;_&#20851;&#32852;&#35746;&#21333;&#24453;&#31579;&#26597;"><path d="M108.5604,255.064 C135.0704,237.254 165.49,220.34 200.5,211.06 C253.34,197.06 274.1,187.65 323.5,211.06 C344.27,220.91 360.65,240.92 371.83,258.48 " fill="none" id="&#24050;&#20837;&#36134;&#33258;&#21160;-backto-&#20851;&#32852;&#35746;&#21333;&#24453;&#31579;&#26597;" style="stroke:#0000FF;stroke-width:1.0;stroke-dasharray:7.0,7.0;"/><polygon fill="#0000FF" points="103.58,258.41,113.2813,256.7113,107.7303,255.6217,108.82,250.0708,103.58,258.41" style="stroke:#0000FF;stroke-width:1.0;"/><text fill="#0000FF" font-family="sans-serif" font-size="13" lengthAdjust="spacing" textLength="121" x="201.5" y="210.3184">Passed&#65288;&#26242;&#19981;&#25903;&#25345;&#65289;</text></g><!--link ??????? to ???????--><g id="link_&#20851;&#32852;&#35746;&#21333;&#24453;&#31579;&#26597;_&#24453;&#26426;&#26500;&#30003;&#25253;&#23457;&#26680;"><path d="M390.51,323.69 C392.46,387.16 391.49,533.82 349,647.01 C340.7,669.11 329.6533,686.2393 316.4033,703.1293 " fill="none" id="&#20851;&#32852;&#35746;&#21333;&#24453;&#31579;&#26597;-to-&#24453;&#26426;&#26500;&#30003;&#25253;&#23457;&#26680;" style="stroke:#0000FF;stroke-width:1.0;"/><polygon fill="#0000FF" points="312.7,707.85,321.4022,703.2378,315.7861,703.9161,315.1079,698.3,312.7,707.85" style="stroke:#0000FF;stroke-width:1.0;"/><text fill="#0000FF" font-family="sans-serif" font-size="13" lengthAdjust="spacing" textLength="50" x="378.26" y="548.8284">Skipped</text></g><!--link ????? to *end*--><g id="link_&#24050;&#20837;&#36134;&#33258;&#21160;_*end*"><path d="M63.12,323.91 C66.37,359.81 71,419.98 71,471.88 C71,471.88 71,471.88 71,869.14 C71,903.73 80.3357,937.9746 85.9957,956.0346 " fill="none" id="&#24050;&#20837;&#36134;&#33258;&#21160;-to-*end*" style="stroke:#181818;stroke-width:1.0;"/><polygon fill="#181818" points="87.79,961.76,88.9154,951.9757,86.2947,956.9888,81.2815,954.3681,87.79,961.76" style="stroke:#181818;stroke-width:1.0;"/></g><!--link ??? to *end*--><g id="link_&#24050;&#20837;&#36134;_*end*"><path d="M143.37,900.97 C127.33,922.58 110.8788,944.7542 100.8688,958.2242 " fill="none" id="&#24050;&#20837;&#36134;-to-*end*" style="stroke:#181818;stroke-width:1.0;"/><polygon fill="#181818" points="97.29,963.04,105.8688,958.2021,100.2723,959.0268,99.4476,953.4304,97.29,963.04" style="stroke:#181818;stroke-width:1.0;"/></g><!--SRC=[XLJBJjjG4DtxAwx40WdLcouHPP5z5LIM8OkeDWKrIgB4g8iAYQ1QX40afAPjUBQfae9G2HGGH2PDVyPtxAxu1QuzVbm_RiWcofmvP-REp4bk9azaUPxGnZ4ztP4a_2PoRkgDgkGTuFwQwdtxzfUzTKwRPsIMp2sNInfvMowMgw-ggZA_KAZLL6Mfb7cPiVR_qhqMRNsnscVGk5yg8Ga5Gl7gwhiLBQmmrgb-OzVRzk0deoOBBBvVhLHK9QqvZiTah8j3-DudGeMmdv36LAFrSHm2OTZUIV1hMa5J2HplmTTzEkZ2Zw4vl20V9S8-oOvPCHORT2TrQJvquFVOD0msJElqoXePjFS7ljsXP6fhh4AckAPEAk7WmInTfI1HLieVIXwrrsAH07T_4NcjmWkxw3IFEwZxT3Ww_xznOF_RydEYKSpa6hIxVQhhfj63pcSSORmq4k38W9DFLli6cdtKzFEIY7TWF14lq2EkuyuvVV_6NI39I2G9Lg0KQYkgyW8tKLINjMVzu-u43VGuQi31fZbiGViITkkFesrn8QoGU6La21EMByMRSjwNcybpG1YQ9j0PMpt3Qjx1Hjttu2nvlR18d6vTC0ndMJZuCuav2qcnQ4fMDYLB4bdIaOoPJvZh2gTYsAn_bQcQ7EutY6xWhabCzN6VYZQJHBiJoAJcUf8f5X6SypFoiTo8VCH8tBbugmqymYFP228b7I6W1dX40AFI4m00]--></g></svg>