<?xml version="1.0" encoding="us-ascii" standalone="no"?><svg xmlns="http://www.w3.org/2000/svg" xmlns:xlink="http://www.w3.org/1999/xlink" contentStyleType="text/css" height="216px" preserveAspectRatio="none" style="width:950px;height:216px;background:#FFFFFF;" version="1.1" viewBox="0 0 950 216" width="950px" zoomAndPan="magnify"><defs/><g><ellipse cx="33" cy="16" fill="#222222" rx="10" ry="10" style="stroke:#222222;stroke-width:1.0;"/><rect fill="#F1F1F1" height="40" rx="12.5" ry="12.5" style="stroke:#181818;stroke-width:0.5;" width="52" x="7" y="87"/><text fill="#000000" font-family="sans-serif" font-size="14" lengthAdjust="spacing" textLength="42" x="12" y="112.291">&#24453;&#21021;&#23457;</text><rect fill="#F1F1F1" height="40" rx="12.5" ry="12.5" style="stroke:#181818;stroke-width:0.5;" width="52" x="94" y="87"/><text fill="#000000" font-family="sans-serif" font-size="14" lengthAdjust="spacing" textLength="42" x="99" y="112.291">&#24453;&#22797;&#23457;</text><rect fill="#F1F1F1" height="40" rx="12.5" ry="12.5" style="stroke:#181818;stroke-width:0.5;" width="108" x="181" y="87"/><text fill="#000000" font-family="sans-serif" font-size="14" lengthAdjust="spacing" textLength="98" x="186" y="112.291">&#36864;&#27454;&#20449;&#24687;&#24453;&#34917;&#20805;</text><rect fill="#F1F1F1" height="40" rx="12.5" ry="12.5" style="stroke:#181818;stroke-width:0.5;" width="108" x="507" y="87"/><text fill="#000000" font-family="sans-serif" font-size="14" lengthAdjust="spacing" textLength="98" x="512" y="112.291">&#36864;&#27454;&#20449;&#24687;&#24453;&#23457;&#26680;</text><rect fill="#F1F1F1" height="40" rx="12.5" ry="12.5" style="stroke:#181818;stroke-width:0.5;" width="52" x="805" y="87"/><text fill="#000000" font-family="sans-serif" font-size="14" lengthAdjust="spacing" textLength="42" x="810" y="112.291">&#36864;&#27454;&#20013;</text><rect fill="#F1F1F1" height="40" rx="12.5" ry="12.5" style="stroke:#181818;stroke-width:0.5;" width="52" x="892" y="87"/><text fill="#000000" font-family="sans-serif" font-size="14" lengthAdjust="spacing" textLength="42" x="897" y="112.291">&#24050;&#36864;&#27454;</text><ellipse cx="918" cy="199" fill="none" rx="11" ry="11" style="stroke:#222222;stroke-width:1.0;"/><ellipse cx="918" cy="199" fill="#222222" rx="6" ry="6" style="stroke:#222222;stroke-width:1.0;"/><!--link *start* to ???--><g id="link_*start*_&#24453;&#21021;&#23457;"><path d="M33,26.19 C33,40.4 33,62.02 33,80.74 " fill="none" id="*start*-to-&#24453;&#21021;&#23457;" style="stroke:#181818;stroke-width:1.0;"/><polygon fill="#181818" points="33,86.74,37,77.74,33,81.74,29,77.74,33,86.74" style="stroke:#181818;stroke-width:1.0;"/></g><!--link ??? to ???--><g id="link_&#24453;&#21021;&#23457;_&#24453;&#22797;&#23457;"><path d="M59.17,107 C70.73,107 76.3,107 87.86,107 " fill="none" id="&#24453;&#21021;&#23457;-to-&#24453;&#22797;&#23457;" style="stroke:#181818;stroke-width:1.0;"/><polygon fill="#181818" points="93.86,107,84.86,103,88.86,107,84.86,111,93.86,107" style="stroke:#181818;stroke-width:1.0;"/></g><!--link ??? to ???????--><g id="link_&#24453;&#22797;&#23457;_&#36864;&#27454;&#20449;&#24687;&#24453;&#34917;&#20805;"><path d="M146.05,107 C157.64,107 163.22,107 174.8,107 " fill="none" id="&#24453;&#22797;&#23457;-to-&#36864;&#27454;&#20449;&#24687;&#24453;&#34917;&#20805;" style="stroke:#181818;stroke-width:1.0;"/><polygon fill="#181818" points="180.8,107,171.8,103,175.8,107,171.8,111,180.8,107" style="stroke:#181818;stroke-width:1.0;"/></g><!--link ??????? to ???????--><g id="link_&#36864;&#27454;&#20449;&#24687;&#24453;&#34917;&#20805;_&#36864;&#27454;&#20449;&#24687;&#24453;&#23457;&#26680;"><path d="M289.2,107 C349.49,107 440.33,107 500.67,107 " fill="none" id="&#36864;&#27454;&#20449;&#24687;&#24453;&#34917;&#20805;-to-&#36864;&#27454;&#20449;&#24687;&#24453;&#23457;&#26680;" style="stroke:#181818;stroke-width:1.0;"/><polygon fill="#181818" points="506.67,107,497.67,103,501.67,107,497.67,111,506.67,107" style="stroke:#181818;stroke-width:1.0;"/><text fill="#000000" font-family="sans-serif" font-size="13" lengthAdjust="spacing" textLength="181" x="307.5" y="100.5684">&#29992;&#25143;&#22312;MPS&#31471;&#34917;&#20805;&#36864;&#27454;&#36134;&#25143;&#20449;&#24687;</text></g><!--link ??????? to ???????--><g id="link_&#36864;&#27454;&#20449;&#24687;&#24453;&#23457;&#26680;_&#36864;&#27454;&#20449;&#24687;&#24453;&#34917;&#20805;"><path d="M506.92,121.69 C496.72,123.9 486.09,125.83 476,127 C407.13,134.99 388.87,134.99 320,127 C309.91,125.83 305.1439,125.1705 294.9439,122.9605 " fill="none" id="&#36864;&#27454;&#20449;&#24687;&#24453;&#23457;&#26680;-to-&#36864;&#27454;&#20449;&#24687;&#24453;&#34917;&#20805;" style="stroke:#181818;stroke-width:1.0;"/><polygon fill="#181818" points="289.08,121.69,297.0289,127.5051,293.9666,122.7488,298.7229,119.6865,289.08,121.69" style="stroke:#181818;stroke-width:1.0;"/><text fill="#000000" font-family="sans-serif" font-size="13" lengthAdjust="spacing" textLength="154" x="321" y="123.5684">&#39118;&#25511;&#21516;&#20107;&#22312;OPS&#31471;&#23457;&#26680;&#39539;&#22238;</text></g><!--link ??????? to ???--><g id="link_&#36864;&#27454;&#20449;&#24687;&#24453;&#23457;&#26680;_&#36864;&#27454;&#20013;"><path d="M615.31,107 C672.75,107 754.97,107 798.64,107 " fill="none" id="&#36864;&#27454;&#20449;&#24687;&#24453;&#23457;&#26680;-to-&#36864;&#27454;&#20013;" style="stroke:#181818;stroke-width:1.0;"/><polygon fill="#181818" points="804.64,107,795.64,103,799.64,107,795.64,111,804.64,107" style="stroke:#181818;stroke-width:1.0;"/><text fill="#000000" font-family="sans-serif" font-size="13" lengthAdjust="spacing" textLength="154" x="633" y="100.5684">&#39118;&#25511;&#21516;&#20107;&#22312;OPS&#31471;&#23457;&#26680;&#36890;&#36807;</text></g><!--link ??? to ???--><g id="link_&#36864;&#27454;&#20013;_&#24050;&#36864;&#27454;"><path d="M857.17,107 C868.73,107 874.3,107 885.86,107 " fill="none" id="&#36864;&#27454;&#20013;-to-&#24050;&#36864;&#27454;" style="stroke:#181818;stroke-width:1.0;"/><polygon fill="#181818" points="891.86,107,882.86,103,886.86,107,882.86,111,891.86,107" style="stroke:#181818;stroke-width:1.0;"/></g><!--link ??? to *end*--><g id="link_&#24050;&#36864;&#27454;_*end*"><path d="M918,127.09 C918,145.66 918,167.17 918,181.87 " fill="none" id="&#24050;&#36864;&#27454;-to-*end*" style="stroke:#181818;stroke-width:1.0;"/><polygon fill="#181818" points="918,187.87,922,178.87,918,182.87,914,178.87,918,187.87" style="stroke:#181818;stroke-width:1.0;"/></g><!--SRC=[oyXCILL8pIqegLH8IIrEBieiACdCp-FYYjQALT3LjLDukg_rQSVSf-iMSd71cGfGyIMzS74m4oJ-ig7XsPfzJ_OlVDQu7YZnOk7IfwsjN5nOXR6e1vhoRC4EAuNdKrOywzZ-TCuAtu3WvwlNGzH3rBxOiWme1T61OJ14Fqw7M2cyNDpth6_vqmazJtPr0utt1niFqVLovUQdi-SHDdB7Mlp6DCnwiRyTRioEjU3Wshu9mWS65um93bzWE7C10000]--></g></svg>